<?xml version="1.0" standalone="no"?>
<!DOCTYPE svg PUBLIC "-//W3C//DTD SVG 1.1//EN" "http://www.w3.org/Graphics/SVG/1.1/DTD/svg11.dtd" >
<svg>
<metadata>
Created by FontForge 20090622 at Mon Nov 12 04:53:21 2018
 By ffonts
Copyright (c) 2018 by Mas Anis. All rights reserved.
</metadata>
<defs>
<font id="BrianStrait" horiz-adv-x="284" >
  <font-face 
    font-family="Brian Strait"
    font-weight="400"
    font-stretch="normal"
    units-per-em="1000"
    panose-1="0 0 0 0 0 0 0 0 0 0"
    ascent="750"
    descent="-250"
    x-height="151.5"
    cap-height="371"
    bbox="-262.421 -239 678 483"
    underline-thickness="50"
    underline-position="-50"
    unicode-range="U+000D-U+E019"
  />
<missing-glyph horiz-adv-x="331" 
 />
    <glyph glyph-name=".notdef" horiz-adv-x="331" 
 />
    <glyph glyph-name="NULL" horiz-adv-x="0" 
 />
    <glyph glyph-name="NULL" horiz-adv-x="0" 
 />
    <glyph glyph-name="nonmarkingreturn" unicode="&#xd;" horiz-adv-x="331" 
 />
    <glyph glyph-name="space" unicode=" " horiz-adv-x="331" 
 />
    <glyph glyph-name="e" unicode="e" horiz-adv-x="250" 
d="M41 29q-10 0 -19.5 3t-17.5 7q-27 15 -27 46q0 19 8.5 33t25.5 19q13 7 26.5 7t19.5 -8q11 -6 6 -19q-2 -7 -6 -11t-8 -6q-8 -4 -16 -4t-16 2q-9 2 -17 4q-5 2 -5 3q-4 -6 -4 -20q0 -25 20 -34q14 -8 37 -7.5t54 10.5q32 11 70 30t78 48q6 2 8 -2q2 -2 2 -5.5t-3 -4.5
q-63 -45 -119.5 -68t-96.5 -23zM4 115q6 -2 17.5 -4.5t19.5 1.5q2 2 5 4t3 5q1 1 1 3q0 1 -1 1q-4 5 -13.5 5t-20.5 -5q-2 -1 -6.5 -3.5t-7.5 -6.5h3z" />
    <glyph glyph-name="f" unicode="f" horiz-adv-x="253" 
d="M-68 -239q-7 0 -15 4q-16 9 -21 35t-2 66q3 33 10.5 67.5t20.5 67.5q12 27 26 53t32 53q29 43 51.5 67t23.5 25q6 6 10 0q2 -2 2 -5.5t-2 -5.5q-11 -10 -23 -23q-11 -11 -24.5 -28t-27.5 -39q0 -1 -1 -2t-1 -2q2 -1 4 -2.5t3 -3.5q0 -3 1 -3h1q3 -1 7.5 -3.5t9.5 -4.5
q11 -5 30 -7t48 0q47 5 77.5 15.5t46.5 19.5q18 11 26 18t8 8q4 2 10 0q2 -2 2 -5v-5q-1 0 -9.5 -8.5t-28 -19t-51.5 -21t-79 -15.5q-31 -3 -52 -0.5t-33 7.5q8 -18 13.5 -41t9.5 -52q5 -40 -2.5 -71.5t-15.5 -51.5q-11 -26 -26 -46.5t-32 -30.5q-13 -10 -27 -10zM-17 83
q-24 -41 -47 -95.5t-28 -123.5q-2 -24 -0.5 -40t4.5 -26t6.5 -14.5t5.5 -6.5q6 -4 14 -1.5t13 6.5q13 8 27 26t25 43t16.5 55t2.5 63q-4 29 -9.5 52t-15.5 40q-3 11 -9 15q-2 2 -2.5 3.5t-2.5 3.5z" />
    <glyph glyph-name="g" unicode="g" 
d="M-104 -187q-11 0 -20 2.5t-14 7.5q-8 3 -10 10t-4 15q-3 14 4.5 31.5t21.5 37.5q15 21 37 42t50 41q27 21 59 39l65 35q8 15 13 29.5l9 25.5q-13 -13 -26.5 -22t-26.5 -14q-32 -15 -50 0q-9 5 -9 21q0 6 3 13l6 14q11 12 21 18.5t24 8.5q16 0 26 -10t10 -11q7 -4 0 -10
q-1 -2 -4 -1t-5 3q-4 3 -8 7q-4 3 -9 5.5t-10 2.5q-17 0 -32 -21q-7 -10 -8.5 -18t4.5 -12q11 -8 39 3t65 54q2 1 3.5 2t4.5 -1q6 -1 4 -7q0 -2 -6.5 -22l-17.5 -52q42 18 86.5 31t90.5 21q6 2 8 -5q0 -7 -7 -8q-48 -8 -94.5 -22.5t-91.5 -33.5q-5 -18 -14 -37.5t-17 -39.5
q-18 -37 -36 -67t-37 -50q-47 -55 -97 -56zM80 54q-30 -14 -57.5 -30.5t-53.5 -36.5q-28 -19 -48.5 -39t-36.5 -40q-26 -37 -23 -58q2 -26 35 -23q25 0 47.5 15.5t42.5 39t36.5 52.5t30.5 57q8 17 14 33t13 30z" />
    <glyph glyph-name="h" unicode="h" horiz-adv-x="294" 
d="M-43 12q-1 0 -2 1q-7 1 -5 9q11 27 22.5 51.5l22.5 46.5q0 1 -1 1.5t-1 2.5q0 8 7 8h3q27 51 53 85t46 57q17 19 34 34.5t34 27.5q15 9 27.5 14t23.5 5q11 2 15.5 -3t6.5 -7q7 -14 -4.5 -35t-24.5 -38q-20 -24 -40 -44t-40 -38l-33.5 -24.5t-33.5 -21.5
q-19 -10 -32.5 -15.5t-22.5 -7.5l-15 -30.5l-16 -34.5q2 2 2.5 3t2.5 2q40 40 68 43q18 0 26 -10q2 -1 6.5 -11t-2.5 -32q5 -2 23 1.5t56 17.5l67 29.5t62 32.5q8 2 10 -2q3 -8 -1 -10q-29 -17 -65 -33.5t-70 -29.5q-29 -11 -46.5 -15.5t-27.5 -5t-13.5 1t-4.5 2.5
q-7 2 -6 13q7 17 5 24t-3 7q-5 6 -14 6q-12 -1 -25.5 -10t-27 -21t-24.5 -24.5t-17 -20.5q-2 -2 -5 -2zM222 343q-17 0 -46 -19.5t-64 -58.5q-20 -20 -43 -51t-47 -75l16.5 7t22.5 11q26 14 63 43t78 82q20 22 25.5 37t1.5 18q0 6 -7 6z" />
    <glyph glyph-name="i" unicode="i" horiz-adv-x="226" 
d="M18 36q-10 0 -17.5 3.5t-14.5 13.5q-7 17 5 61q3 7 6.5 13t5.5 11q3 5 5 11q3 8 9 5q6 -5 3 -10q-2 -5 -5 -11q-2 -5 -5 -11.5l-6 -13.5q-8 -24 -7 -34.5t3 -13.5q3 -7 11.5 -10.5t30.5 3.5q21 6 52 20l77 35l25 10.5t28 13.5q6 1 10 -3q2 -3 0.5 -6t-4.5 -3
q-14 -8 -28 -14l-27 -12l-75 -33.5t-54 -20.5q-12 -4 -28 -4zM36 200q-5 0 -7 2.5l-5 6.5q-2 2 -1.5 4.5t2.5 3.5q2 2 6 4t6 0q4 -3 7 -10q0 -5 -2 -7t-3 -2l-2 -2h-1zM29 210l2 -1q1 -3 3 -3h1l-5 6q-1 -1 -1 -2z" />
    <glyph glyph-name="j" unicode="j" horiz-adv-x="174" 
d="M-212 -187q-11 0 -20 2.5t-14 7.5q-8 3 -11 10t-5 15q-2 14 5.5 31.5t21.5 37.5q16 21 38 42t49 41q29 21 60 39t66 35q7 17 12.5 32.5t8.5 26.5q4 13 6 24q5 7 10 4q2 0 4.5 -2.5t0.5 -4.5q0 -2 -6 -22t-17 -52q82 35 177 52q5 2 8 -5q0 -7 -7 -8q-49 -8 -94.5 -22.5
t-90.5 -33.5q-7 -18 -15.5 -37.5l-17.5 -39.5q-17 -37 -35 -67t-38 -50q-45 -55 -95 -56h-1zM-29 54q-60 -28 -110 -67q-27 -19 -48 -39t-36 -40q-12 -18 -19 -32.5t-6 -25.5q3 -26 36 -23q25 0 47.5 15.5t42 39t36.5 52.5t31 57q8 17 14 33t12 30zM24 200q-8 0 -12 9
q-2 5 1 8q2 2 5 4t7 0q5 -3 6 -10q0 -9 -6 -9q0 -1 -1 -2zM17 210q0 -1 1 -1h2l2 -3l-4 6q-1 -1 -1 -2z" />
    <glyph glyph-name="k" unicode="k" horiz-adv-x="295" 
d="M-48 12q-3 3 -2 10q11 27 22.5 51.5l22.5 46.5q0 1 -1 1.5t-1 2.5q0 8 7 8h3q27 51 53 85t46 57q17 19 34 34.5t34 27.5q15 9 27.5 14t23.5 5q11 2 15.5 -3t6.5 -7q7 -14 -4.5 -35t-24.5 -38q-20 -24 -40 -44t-40 -38l-33.5 -24.5t-33.5 -21.5q-19 -10 -32.5 -15.5
t-22.5 -7.5l-14 -28l-14 -29q2 2 3.5 4.5t5.5 5.5q24 26 43.5 40.5t33.5 15.5t23 -9q2 -2 2 -4t-2 -13.5t-13 -20.5q-9 -5 -18.5 -8t-22.5 -1q4 -8 19 -16q29 -11 78 0q32 8 71 26.5t87 47.5q6 2 10 -2q3 -9 -2 -10q-48 -29 -89 -48t-74 -28q-52 -12 -86 0q-11 5 -17.5 11.5
t-10.5 11.5q-4 6 -7 13q-17 -17 -32 -36t-23 -30q-4 -2 -6 -2h-5zM28 90q29 -8 42 3q11 10 11 21l-4 2t-6 -1q-8 0 -19.5 -7.5t-23.5 -17.5zM222 343q-17 0 -46 -19.5t-64 -58.5q-20 -20 -43 -51t-47 -75l16.5 7t22.5 11q25 14 62.5 43t78.5 82q20 22 25.5 37t1.5 18
q0 6 -7 6z" />
    <glyph glyph-name="l" unicode="l" 
d="M53 11q-24 0 -36 6q-13 8 -21 20.5t-8 29.5q0 26 7 52t20 52q11 23 27 44.5t36 42.5q18 19 37 35.5t39 29.5q17 11 34 20t31 14q26 7 35 -5q12 -15 -20 -53q-19 -24 -39 -44.5t-41 -38.5q-17 -13 -34 -24.5t-35 -20.5q-27 -17 -45 -21t-18 -6h-4q-6 -18 -10 -37.5
t-4 -39.5q0 -8 2.5 -19t17.5 -19q13 -5 34 -4.5t49 10.5q35 11 79.5 35.5t96.5 61.5q2 1 5.5 0.5t3.5 -2.5q2 -2 2 -5.5t-2 -4.5q-47 -32 -84 -53t-66.5 -33.5t-51 -17.5t-37.5 -5zM237 346h-5.5t-8.5 -2q-23 -8 -60.5 -32t-72.5 -62q-17 -17 -34.5 -39.5t-28.5 -50.5
q7 2 20 7.5t33 15.5q26 14 63 43t79 81q9 11 12.5 18t5.5 12t1 8q0 1 -4 1z" />
    <glyph glyph-name="m" unicode="m" horiz-adv-x="457" 
d="M-14 4q-10 0 -12 1q-8 5 -8.5 16t2.5 21q2 11 6 24t10 28q11 28 20.5 49t9.5 23q2 2 5 3t5 -1q5 -3 4 -10l-10 -21q-5 -9 -10 -20.5l-10 -23.5q-9 -24 -13 -38.5t-5 -22.5t0 -10.5t1 -3.5h6t13.5 5t21 18t27.5 39l23.5 38.5t20.5 28.5q9 14 16 18.5t12 2.5q8 -3 8 -11
t-2 -10q-2 -8 -5 -16.5t-5 -16.5q-8 -18 -12 -36q-2 -9 -1.5 -13t0.5 -5q1 0 1 -1t2 -1q5 -1 11 10.5t12 21.5q5 13 12 24t16 13q5 3 16 -2q11 -7 11 -23q0 -12 -5 -25q-2 -10 -3.5 -20t3.5 -16q4 -8 14 -11.5t25 -5.5q23 -3 49.5 4t53 18.5t51 26.5l43.5 27.5t30 21.5l11 9
q6 2 10 0q5 -7 -1 -11q-11 -9 -25 -19l-28 -18.5l-34 -21.5q-41 -25 -80 -39q-48 -15 -82 -11q-37 3 -49 23q-8 11 -6 23.5t4 23.5q10 25 0 33h-5q-3 -2 -9 -12l-11 -18q-7 -15 -14.5 -27.5t-18.5 -12.5h-4q-3 0 -6.5 3t-4.5 6q-7 10 -2.5 27.5t12.5 38.5q4 8 6 16t5 14v1
q-3 -2 -6.5 -5.5t-7.5 -11.5q-8 -10 -18 -25.5l-21 -33.5q-33 -58 -66 -70h-9v0z" />
    <glyph glyph-name="n" unicode="n" horiz-adv-x="357" 
d="M-24 11q-3 0 -5 1t-3 3.5t1 4.5q3 9 9 30l12 43t10 39l4 17q0 9 8 7q2 -2 4 -4.5t1 -4.5q0 -1 -2 -9l-5 -20t-7 -26.5l-8 -28.5q4 4 7.5 9t8.5 8q45 61 77 61l9 -3.5t6 -5.5q5 -6 5 -16t-1 -21q-2 -9 -3 -18.5t4 -13.5q5 -2 13 -3.5t28 4.5q37 11 73.5 23l66 22
l47.5 16.5t19 6.5q7 1 9 -3q1 -3 -0.5 -6t-3.5 -3l-18.5 -7l-47.5 -17.5t-66 -22.5t-74 -22q-20 -7 -33.5 -6t-20.5 7q-9 8 -9 20.5t2 24.5q0 8 1 16t-1 11h-2q-1 0 -2.5 0.5t-3.5 0.5q-6 2 -21 -7.5t-42 -46.5l-17 -21t-13 -18l-11 -19q-4 -2 -5 -2z" />
    <glyph glyph-name="o" unicode="o" horiz-adv-x="277" 
d="M-14 17q-7 1 -16 6.5t-14 20.5q-5 11 -5.5 22t4.5 19q4 11 11 19t14.5 13t13 8t6.5 4v4q0 13 4.5 24t15.5 17q17 10 37 -1q21 -14 19 -46q0 -8 -0.5 -14.5t-4.5 -14.5q20 -4 49 -1q35 2 75 11t82 24q5 3 7 -3q2 -9 -4 -9q-84 -34 -159 -36q-14 -1 -28 -1t-26 2
q-11 -28 -26 -41q-22 -27 -50 -27h-5zM4 115q-2 -1 -16 -9.5t-20 -24.5q-8 -16 1 -32q5 -13 18 -19q22 -2 44 23q15 15 22 35q-10 2 -18.5 5.5t-14.5 8.5q-5 2 -8 5.5t-8 7.5zM39 164q-8 0 -12 -3q-14 -6 -14 -28q2 -12 15 -19q11 -9 30 -12q2 5 2.5 12t2.5 13q1 25 -14 34
q-5 3 -10 3z" />
    <glyph glyph-name="p" unicode="p" horiz-adv-x="292" 
d="M-90 -187q-5 1 -5 10l99 328q1 5 4.5 5.5t5.5 0.5q3 0 4.5 -3.5t-0.5 -5.5l-49 -164q29 68 58 111q33 58 61 71q10 7 26 2q26 -11 23 -36q0 -11 -7 -25t-20 -26q-4 -3 -7.5 -7t-8.5 -6h11q34 2 83.5 15t103.5 49q8 2 10 -2q2 -2 1.5 -5.5t-2.5 -4.5q-26 -17 -53 -30
t-53 -22q-22 -6 -44.5 -9t-45.5 -5q-17 -1 -34 0q-3 -2 -6 -2.5t-7 -2.5q-24 -5 -38 9q-18 -33 -39 -84q-14 -29 -25 -57l-19 -50t-12.5 -36l-4.5 -14q-4 -4 -9 -4h-1zM29 74q5 -2 15.5 -4t23.5 -2q20 10 37 29.5t19 34.5q1 9 -3 14t-13 10q-9 2 -15 -2q-10 -5 -25.5 -22
t-38.5 -58z" />
    <glyph glyph-name="q" unicode="q" horiz-adv-x="319" 
d="M34 -177q-8 0 -16 4q-9 12 -6 40q0 12 3 27.5t7 33.5q9 29 22 65.5l27 74.5q9 17 15.5 31l13.5 28q-26 -37 -54 -51q-13 -8 -24 -11.5t-19 -1.5q-10 1 -15.5 5.5t-9.5 11.5q-6 22 15 45q22 24 47 24q16 -1 27 -8.5t16 -11.5q2 2 2.5 3.5t4.5 3.5q10 15 17 23.5t12 15.5
q2 4 4 6l4 4l4 4t6 -1q7 -2 4 -10q0 -2 -4 -4l-2.5 -7.5t-3.5 -9.5l-20.5 -40.5t-25.5 -53.5q-2 -10 -5 -14q3 0 20 -1.5t46 5.5q29 5 73.5 22.5t99.5 56.5q2 2 8 -2q2 -2 1.5 -5.5t-2.5 -4.5q-26 -19 -51 -32.5t-49 -23.5q-40 -18 -78 -25q-38 -6 -58 -4q14 -36 13 -81.5
t-15 -81.5q-8 -17 -19 -29.5t-25 -17.5q-6 -2 -10 -2zM76 35q-14 -30 -24 -59t-16 -53q-7 -26 -9.5 -42t-2.5 -25t1.5 -13t3.5 -5q0 -1 2 -2t9 2q14 3 22 16t14 24q6 17 9.5 37.5t3.5 41.5t-3.5 41t-9.5 37zM39 134q-9 0 -18 -4t-17 -13q-18 -19 -13 -32q6 -8 13 -8
q16 -2 35 8l18 14.5t17 17.5q-3 3 -12 10t-22 7h-1z" />
    <glyph glyph-name="r" unicode="r" horiz-adv-x="263" 
d="M-29 11q-2 0 -2.5 0.5t-2.5 0.5q-4 2 -2 10q17 32 24 53.5t10 35.5q3 16 2 25q-4 7 3 10q1 2 4.5 0.5t4.5 -3.5q0 -1 1.5 -6t0 -16.5t-6 -29.5t-16.5 -45q10 11 22 28t23 40q0 3 5 3q1 2 2 1t3 -1q6 -4 15 -8q8 -4 18 -8t24 -6q25 -3 65.5 2.5t94.5 34.5q2 1 4.5 0.5
t3.5 -2.5q2 -8 -3 -10q-48 -27 -95 -36q-38 -9 -73 -1q-20 2 -34 8t-22 11q-12 -26 -24 -42.5t-22 -27.5q-11 -12 -22 -20q-2 0 -2.5 -0.5t-2.5 -0.5z" />
    <glyph glyph-name="s" unicode="s" horiz-adv-x="272" 
d="M84 -75q-22 0 -32 14q-8 9 -9.5 24t6.5 32q2 7 6.5 16t10.5 17q-2 2 -5.5 4t-6.5 4l-17 11.5t-13 10.5q-18 15 -26 44q-2 10 -1 20.5t6 16.5q15 29 39 29q12 0 20 -4.5t13 -9.5q6 -6 10 -13q2 -3 1 -6t-2 -3q-7 -3 -10 2q0 2 -7.5 11t-24.5 9q-5 0 -12.5 -4t-15.5 -18
q-5 -8 -1 -28.5t21 -35.5l12 -9.5t15 -9.5q7 -8 15 -10q26 29 75 56t126 37q6 0 7 -5q0 -7 -6 -8q-45 -7 -83.5 -20.5t-69.5 -32.5l-22 -19t-18 -17q11 -6 19 -13.5t16 -16.5q8 -11 9 -24.5t-4 -24.5q-6 -18 -28 -23q-3 0 -6.5 -1.5t-6.5 -1.5zM77 20q-7 -9 -10.5 -17
t-6.5 -13q-10 -28 1 -41t33 -8q14 5 20 16q5 18 -6 34q-5 9 -13 16t-18 13z" />
    <glyph glyph-name="t" unicode="t" horiz-adv-x="306" 
d="M-48 134q-5 0 -5 5q-3 6 3 10q1 0 15 4t46 7l7.5 17t5.5 13q3 6 5 12q3 5 11 3q2 -1 3 -3.5t-1 -4.5q-1 -5 -4 -10q-6 -11 -11 -26q10 2 20.5 3.5t23.5 1.5q9 0 9 -6q0 -2 -2 -5.5t-4 -3.5q-16 -1 -28.5 -1.5t-23.5 -2.5q-5 -8 -8.5 -17t-8.5 -20q-29 -88 -12 -123
q6 -12 20 -14q4 -2 11 -2q26 0 67.5 19t98.5 54q23 15 44.5 30.5t37.5 28.5l34 28q3 2 11 0q4 -8 -1 -11q-1 0 -11 -7.5l-25.5 -19.5l-36.5 -27.5t-45 -31.5q-118 -77 -174 -77h-6.5t-5.5 2q-23 3 -33 24q-8 19 -5.5 52.5t19.5 81.5q3 8 6 14.5t5 14.5q-27 -5 -37 -7
q-7 -2 -11 -3q-1 -2 -4 -2z" />
    <glyph glyph-name="u" unicode="u" horiz-adv-x="406" 
d="M151 39q-11 0 -16.5 4t-9.5 9q-12 21 5 68q1 1 1 2.5t1 2.5q-18 -17 -35.5 -31.5t-32.5 -25.5q-11 -8 -26 -15t-28 -7q-4 0 -6 1.5t-4 1.5q-13 3 -16 19q-2 14 1 27.5t8 24.5t9.5 18t5.5 8q4 4 9 2q9 -3 1 -11q-7 -11 -11 -22q-4 -10 -7.5 -21.5t-1.5 -23.5q0 -5 2.5 -6
t3.5 -3q8 -2 21.5 3t30.5 16q21 14 45 36t48 48q0 2 4 2h4q3 -2 3.5 -5t-0.5 -4q-3 -6 -6 -13q-7 -14 -11 -29q-8 -19 -9.5 -34t3.5 -21q0 -7 17 -7q14 0 38 6t52 14.5t56 19l51 19l38 14.5l15 6q8 2 10 -3q2 -3 0.5 -6t-4.5 -3q-2 -1 -18 -7l-39 -15t-51.5 -19l-56.5 -19
t-52 -15t-39 -6h-3v0z" />
    <glyph glyph-name="v" unicode="v" horiz-adv-x="404" 
d="M-5 24q-2 1 -8 5q-2 5 -3 18t6 48q4 19 8.5 34t5.5 15q0 5 8 5q5 -2 5 -8q-2 -7 -4 -15l-4.5 -15.5t-4.5 -17.5q-7 -30 -6.5 -41t2.5 -13q4 1 24 11t44 30q6 4 10.5 8.5t11.5 9.5q-4 3 -6 5.5t-4 5.5q-13 18 -4 48q3 13 12 25t20 23q12 12 23.5 16.5t17.5 2.5t11.5 -9.5
t-0.5 -29.5q-16 -50 -51 -85q6 -4 12.5 -6t15.5 -4q23 -8 47.5 -9.5t48 0.5t45 6t39.5 8q19 6 35 13l27 12q13 6 24 12q6 1 11 -2q3 -8 -4 -10q-1 -1 -25.5 -13t-65.5 -23q-23 -6 -45.5 -11t-43.5 -6q-52 -4 -98 9q-9 2 -17.5 5.5t-14.5 8.5q-7 -7 -12.5 -11.5t-11.5 -10.5
q-24 -18 -46 -31t-33 -13h-2zM144 211q-7 0 -27 -16q-10 -9 -17.5 -21t-9.5 -24q-8 -20 3 -33q2 -7 5 -9q16 17 28.5 37t20.5 45q2 7 2 10.5v5.5q-1 2 -1 3l-1 1q-1 0 -1 0.5t-2 0.5z" />
    <glyph glyph-name="w" unicode="w" horiz-adv-x="435" 
d="M-7 13q-6 0 -7 4q-10 7 -7 36q2 10 4 21.5t5 25.5l7.5 23t7.5 19q4 10 8 19q1 5 9 5q4 -2 4 -9q-3 -9 -7 -19l-7 -20t-7 -23q-12 -37 -11.5 -51t3.5 -17q2 1 12.5 8t33.5 31q17 14 28 27.5t11 14.5q5 2 8 1q5 -2 5 -7q0 -9 1 -23.5t8 -21.5q1 -3 6 -3q16 0 39 20
q7 3 11.5 8l9.5 11q-5 3 -8.5 9.5t-5.5 14.5q-4 13 0.5 29.5t13.5 35.5q19 32 41 40q6 2 12 -1t8 -11q4 -13 3 -27t-5.5 -27t-10.5 -24t-12 -18q-4 -5 -7 -9.5l-7 -10.5q12 -3 28 -3t32 2q51 8 86 15t56.5 12.5t31.5 8.5t11 3q5 2 8 -3q2 -3 0 -6t-5 -3l-10 -3.5t-31.5 -8.5
t-57 -12.5t-86.5 -15.5q-23 -3 -40.5 -2.5t-29.5 6.5h-3q-11 -12 -23 -21q-11 -8 -24 -15t-25 -7q-5 0 -9.5 1.5t-7.5 6.5q-6 5 -8.5 15t-4.5 20q-5 -5 -11.5 -12.5t-14.5 -15.5q-29 -29 -41 -36t-18 -7zM211 209q-5 -3 -14 -11.5t-17 -22.5q-9 -14 -12.5 -29t-1.5 -26
q2 -6 5 -10l6 -8q5 5 8.5 9.5t6.5 9.5q37 51 24 84q0 2 -0.5 2t-0.5 1q-1 0 -1 1h-3z" />
    <glyph glyph-name="x" unicode="x" horiz-adv-x="285" 
d="M-9 66q-3 0 -5 2t-2 5t2 4l8.5 8.5t18.5 16.5q-2 4 -2 6q-5 7 -7.5 13.5l-4.5 11.5q-3 6 -4 11q0 7 5 7q3 2 5.5 0.5t4.5 -3.5q0 -1 2 -10.5t10 -23.5l2 -2q12 10 26 20t27 15q8 1 8 -4q4 -3 2 -6t-4 -4q-12 -5 -25.5 -13.5t-27.5 -19.5q19 -26 41 -36q21 -7 54 2
q16 2 34 8t39 16q17 7 33 14.5l28 13.5q14 7 26 14q8 2 10 -2q3 -8 -3 -10l-27 -15q-12 -7 -28.5 -14.5t-34.5 -14.5q-34 -14 -61.5 -20.5t-47.5 -6.5q-8 0 -13.5 0.5t-12.5 2.5q-14 6 -25 16t-22 23q-6 -5 -10 -9l-7 -7q-4 -4 -6 -7q-4 -2 -6 -2z" />
    <glyph glyph-name="y" unicode="y" horiz-adv-x="270" 
d="M-104 -187q-19 0 -24 7t-5 13q-1 13 11 30t37 43l52.5 46l61.5 51q5 2 9.5 5.5t10.5 5.5q13 30 22.5 59t18.5 52q-5 -8 -10.5 -15t-13.5 -15q-18 -19 -31 -25t-22 -6q-7 0 -13 4q-9 5 -11.5 12t-1.5 15q6 20 11.5 34t5.5 15q0 2 3 3.5t5 -0.5q5 -2 5 -10q-2 -6 -5 -13
q-2 -6 -5 -14t-6 -17q-1 -4 0.5 -7.5t3.5 -5.5q7 -3 19.5 1t29.5 24q11 13 20.5 25.5l16.5 22.5q8 11 14 22q5 5 9 2q2 -2 4 -3t1 -4q-2 -2 -15 -43t-36 -98l49 33.5t46 27.5q35 19 62 30t45 12q2 0 4.5 -1t2.5 -4q0 -7 -6 -8q-17 -2 -42.5 -12.5t-58.5 -29.5
q-26 -14 -55 -32t-57 -41q-4 -5 -5 -11q-79 -180 -157 -180zM36 -12q-78 -58 -117.5 -99.5t-37.5 -55.5q0 -2 2 -4t13 -2q32 0 67 41t73 120z" />
    <glyph glyph-name="z" unicode="z" horiz-adv-x="272" 
d="M-77 -184q-14 0 -17 7q-6 6 -7 17t5 29q15 63 79 121q16 16 35.5 30t42.5 29q-13 7 -32 8t-28 -1q-8 0 -8 5q0 6 5 9q10 3 25.5 21.5t29.5 38.5q-23 -10 -37.5 -10.5t-15.5 -0.5q-7 0 -7 6q0 7 7 7q1 0 20 2t48 17q2 2 5 2t4 -3q5 -2 1 -7q-1 -2 -8.5 -14t-18.5 -26
l-15 -18.5t-12 -13.5q12 -1 26 -4t26 -13q7 5 14.5 9t16.5 8q32 16 61.5 27.5t53 19t37.5 11t15 3.5q5 2 8 -5q0 -6 -5 -8q-24 -6 -50 -15l-52.5 -19t-60.5 -27q-8 -3 -15 -6.5l-15 -7.5q12 -17 4 -41q-6 -26 -23 -57t-43 -60q-23 -26 -47 -44.5t-41 -23.5q-6 -2 -11 -2z
M71 37q-25 -15 -50 -33t-46 -39t-37 -46t-23 -53q-4 -18 -2.5 -24.5t2.5 -8.5q6 -3 16 0q16 4 38 21t43.5 41.5t39 53t24.5 55.5q1 11 0.5 19t-5.5 14z" />
    <glyph glyph-name="A" unicode="A" horiz-adv-x="513" 
d="M401 -131q-2 0 -4 2l-8.5 13.5t-16.5 38t-10 59t12 76.5q-23 10 -42 15.5t-38 9.5q-34 -27 -69.5 -51.5t-71.5 -42.5t-72.5 -28.5t-70.5 -9.5q-5 0 -6 3t0 5q0 5 7 5q63 -2 131.5 33t132.5 87q-20 2 -36.5 0.5t-27.5 -4.5t-17.5 -6l-6.5 -3q-6 -6 -9 5q-3 3 4 7
q1 0 8.5 3.5t21 6.5t33 4.5t44.5 -2.5q49 41 92.5 85.5t76 81.5t51.5 61t21 25q0 4 5 2q4 -3 4 -6l-2.5 -9.5t-13 -32t-33 -62t-62.5 -99.5q-39 -58 -47.5 -106t-2.5 -82.5t17.5 -53.5t11.5 -20q2 -2 1.5 -4.5t-2.5 -3.5q-2 -2 -5 -2zM418 148q41 61 62.5 100t32.5 61
l-35 -42t-47.5 -53.5l-58 -59.5t-65.5 -61q16 -2 33.5 -8.5t36.5 -14.5q13 34 41 78z" />
    <glyph glyph-name="B" unicode="B" horiz-adv-x="570" 
d="M127 -117q-96 0 -122 66q-9 31 -4 51.5t13 33.5q16 20 37.5 27t39.5 7q22 1 39 -4t29 -11t19 -11.5l7 -5.5q2 -2 2 -4.5t-2 -3.5q-2 -8 -8 0q-10 8 -22 14q-11 5 -26.5 10t-35.5 5h-2q-19 0 -37 -9t-29 -23q-19 -29 -7 -74q14 -38 62.5 -50.5t123.5 4.5q45 10 90.5 29.5
t81 44t56.5 51.5t18 53q-3 31 -49 48q-20 8 -43.5 10.5t-51.5 4.5q-31 -13 -66 -21t-69 -8q-4 -11 -7.5 -22t-5.5 -24q0 -4 -4 -4h-3q-4 0 -4 9q2 11 5 21t5 20h-6q-13 2 -19.5 4t-6.5 9q0 5 13 10t30 8q15 36 34 64t36 48t28.5 31l12.5 12q4 4 10 0q2 -2 1 -4.5t-3 -4.5
q-1 0 -11.5 -10t-26.5 -29t-33.5 -45.5t-32.5 -59.5q20 5 36 6t19 1q14 1 31 2t37 -1q57 26 90 63q14 15 18.5 32.5t1.5 35.5q-4 11 -13 20t-26 12q-27 8 -66.5 2.5t-80.5 -19.5t-77 -34t-56 -41q-22 -22 -26 -34.5t-3 -19.5q4 -8 15 -12q4 -2 10 -3q2 0 4.5 -2t0.5 -4
q0 -8 -7 -6q-7 0 -14 4q-6 2 -12 7.5t-8 13.5q-4 11 3.5 28t27.5 37q22 22 59.5 42.5t80 35t84 20.5t70.5 -2q40 -11 45 -42q6 -20 0 -40.5t-21 -40.5q-13 -14 -32.5 -28t-42.5 -26q23 -2 46 -7t41 -13t30.5 -21t14.5 -32q3 -27 -18.5 -56t-58 -55.5t-84 -47.5t-96.5 -32
q-22 -5 -42 -7.5t-37 -2.5zM270 146l-50 -4t-43 -5q0 -2 -1 -3.5t-1 -2.5q47 0 95 15zM154 131h7l2 3q-5 -1 -9 -1.5t-7 -1.5h7z" />
    <glyph glyph-name="C" unicode="C" horiz-adv-x="352" 
d="M88 -99q-18 0 -35 6t-31 21q-20 18 -23.5 53.5t12.5 84.5q14 46 40 94.5t55.5 89t59.5 68t53 32.5q18 2 34 -0.5t27 -13.5q12 -9 19 -21t11 -22.5t5.5 -18.5t1.5 -9q0 -2 -2 -3.5t-4 -3.5q-3 0 -5 2.5t-2 4.5q-1 12 -5 23q-3 10 -9 20.5t-16 18.5q-12 8 -25 11.5
t-28 -1.5q-19 -3 -47 -29t-57 -64.5t-54.5 -86t-40.5 -94.5q-4 -15 -7.5 -33t-4 -35.5t3.5 -33.5t15 -26q20 -19 44.5 -21.5t50 5.5t49 22t42 28t30 24.5l11.5 10.5q2 3 4.5 3t4.5 -3q2 -1 2 -4t-2 -5t-18 -17t-41 -32t-56 -31t-62 -14z" />
    <glyph glyph-name="D" unicode="D" horiz-adv-x="399" 
d="M105 -99q-42 0 -74 31q-40 43 -28 83q7 23 28 41t47 29q2 24 0 51.5t-7 51.5q-4 19 1 40t16.5 42t29 39t39.5 31q36 24 74 23t70 -27q26 -20 35 -58.5t0 -90.5q-8 -42 -26.5 -87t-45 -84.5t-59 -69t-66.5 -40.5q-9 -2 -17 -3.5t-17 -1.5zM78 70q-20 -10 -38 -24.5
t-25 -33.5q-11 -33 26 -70q41 -41 93 -24q33 11 64 40t56 67t43 81.5t26 83.5q8 48 1 83t-30 54q-29 23 -62.5 23t-68.5 -20q-41 -26 -63 -65t-16 -73q5 -26 7 -52t2 -49h2l55 194q1 4 4 5.5t4 1.5q2 -2 4 -5t1 -5l-53 -187q4 0 7 1t5 1q11 2 27.5 2t24.5 -9q1 -7 -1 -10
q-8 -5 -10 1q-2 3 -11.5 5.5t-26.5 -1.5q-4 -1 -8 -1.5t-9 -2.5l-24 -83q0 -5 -7 -5q-6 4 -6 8q1 8 3 19q2 9 2.5 22t1.5 28z" />
    <glyph glyph-name="E" unicode="E" horiz-adv-x="328" 
d="M54 -99q-6 0 -11.5 1l-11.5 2q-5 1 -11 5.5t-11 12t-8 19.5t-1 30q1 27 15.5 52t35.5 46t45.5 38.5t46.5 29.5q-14 0 -26 -3q-36 -3 -46 46q-3 19 1.5 43t16.5 46.5t32.5 40.5t49.5 26q15 4 32 5.5t33 -3.5t30 -17.5t23 -35.5q1 -1 1 -2q3 -5 -1 -8q-3 -2 -6 -1t-4 3
q1 0 -2 3l-8.5 16.5t-17 19.5t-30 12.5t-47.5 -4.5q-27 -8 -45.5 -24.5t-29.5 -36.5t-14.5 -41.5t-0.5 -39.5q1 -8 8 -21.5t25 -12.5q29 2 46.5 6.5t26.5 8.5q10 4 10 5q2 0 4.5 -0.5t4.5 -3.5q2 -7 -4 -7l-2 -2q-1 -1 -2.5 -2t-3.5 -3q-15 -6 -44 -22.5t-59 -40t-54 -53
t-28 -63.5q-1 -15 3 -32t22 -22q16 -6 40 -1t51.5 21t56.5 43t55 64q2 4 5 4.5t5 0.5q4 -7 1 -12q-50 -68 -103.5 -102t-93.5 -34z" />
    <glyph glyph-name="F" unicode="F" horiz-adv-x="292" 
d="M0 119q-7 0 -7 5q-2 4 0 5.5t4 2.5l6 1q13 6 25.5 10t24.5 6q5 40 4.5 77.5t-8.5 67.5q0 7 4 8q2 1 23 8.5t56 15.5l4 17q2 5 8 3q3 -1 4 -4t1 -6l-2 -6q24 6 52.5 10t58.5 4.5t61 -2.5t60 -11q5 -1 5 -8q0 -3 -3 -3.5t-5 -0.5q-30 9 -61.5 11.5t-62 1t-59 -6t-52.5 -9.5
l-48 -156q29 6 55.5 10t53.5 5q8 0 8 -7t-8 -7q-27 -1 -56 -4t-61 -11l-60 -191q-8 -29 -14.5 -46.5t-6.5 -19.5q-2 -5 -7 -5h-2q-3 0 -4 3.5t0 5.5l20 57q10 35 21.5 84.5t19.5 101.5q-11 -4 -22 -7t-22 -8q-5 -2 -8 -2zM64 292q8 -29 8.5 -64.5t-4.5 -71.5l8 1l51 154
q-24 -6 -39.5 -11.5t-23.5 -7.5zM71 141h-5q0 -8 -1 -15t-2 -12z" />
    <glyph glyph-name="G" unicode="G" horiz-adv-x="390" 
d="M231 -116q-5 0 -5 7q0 42 5 74t12 59q-26 -23 -55.5 -37.5t-58 -22t-55 -7t-45.5 8.5q-9 4 -18 14.5t-13 33.5q-4 32 7 75t33 87.5t54 84.5t71 66q74 50 120 31q13 -5 22 -14t13.5 -17.5t6.5 -15t2 -7.5q0 -7 -6 -8q-4 0 -8 6q-3 8 -7 17q-4 7 -10 14.5t-17 12.5
q-41 14 -108 -30q-39 -26 -70 -66t-51.5 -82.5t-30.5 -83t-7 -67.5q2 -17 7.5 -25.5t15.5 -13.5q19 -7 45.5 -6t56.5 10t60 26.5t56 42.5q18 44 36.5 62t20.5 19h4t5 -1q2 -2 0 -9q-10 -22 -23.5 -42t-30.5 -38q-11 -26 -19 -63t-8 -88q0 -7 -7 -7z" />
    <glyph glyph-name="H" unicode="H" horiz-adv-x="347" 
d="M-41 -102q-3 0 -6 3t-3 5v19v179q0 6 6 8q1 2 12 5l29 8q18 48 39 91t39 76t30.5 53.5t14.5 23.5q1 3 4.5 3.5t6.5 -0.5q2 -2 3 -6t-1 -6q0 -1 -11.5 -19.5t-28.5 -49.5t-37.5 -72.5t-38.5 -87.5q24 6 55.5 11t68 6.5t76 -2t79.5 -15.5q8 -2 6 -10t-10 -6
q-41 13 -81.5 16.5t-77.5 1.5t-68.5 -7.5t-53.5 -11.5q-19 -49 -31 -97t-14 -93v-18q0 -2 -2 -5t-5 -3zM-34 29q5 20 11 39t13 39q-8 -2 -14 -4.5t-10 -4.5v-69zM157 -39q-8 1 -8 10q5 37 18.5 78.5t31 82.5t36.5 78.5l35 66.5t27 47t13 20q1 2 5 3t5 0q3 -2 4 -5.5t-1 -5.5
q-1 -1 -11.5 -18.5t-26 -46l-34.5 -66t-36.5 -78t-30.5 -81.5t-18 -77q0 -5 -3 -6.5t-6 -1.5z" />
    <glyph glyph-name="I" unicode="I" horiz-adv-x="311" 
d="M177 336q-4 0 -6 7q-2 6 4 9q1 0 13 4t37 8.5t62 6.5t87 -1q4 0 6 -3t2 -5q0 -3 -3 -6t-6 -3q-32 4 -59 3.5t-49 -3.5v-5l-6 -16t-16.5 -41.5l-23 -57.5l-26 -64.5l-26 -62.5l-21.5 -52q-22 -54 -30 -83t-8 -37q23 1 49 -4t52 -19q5 -5 2 -10q-1 -4 -4.5 -4.5t-6.5 -0.5
q-32 17 -63 20t-55.5 -1t-41 -11.5t-18.5 -10.5q0 -2 -2 -2.5t0 -1.5q4 -6 9 -6q8 -2 6 -11q0 -2 -2.5 -3.5t-4.5 -1.5h-3q-1 0 -8.5 4t-12.5 12v8.5t4 11.5q5 6 28 16t55 13q1 2 2 11t5 24.5t12 38.5t22 54q13 30 31 76l36 91l31.5 80.5t17.5 44.5q-33 -4 -49.5 -9.5
t-18.5 -5.5q0 -1 -3 -1z" />
    <glyph glyph-name="J" unicode="J" horiz-adv-x="462" 
d="M271 337q-6 0 -6 7t5 8q3 0 52 7t132 5q2 0 5 -2.5t3 -4.5q0 -4 -3 -5.5t-5 -1.5q-42 1 -75 -0.5t-56 -4.5q-27 -4 -49 -8h-3zM81 -126q-32 0 -48.5 10t-24.5 21q-16 23 -10.5 58.5t31.5 75.5q18 28 44.5 54.5t59 45.5t69.5 28.5t76 3.5q7 -2 5 -8q0 -6 -8 -6
q-36 6 -71 -3t-66 -27.5t-56 -44t-41 -52.5q-22 -35 -27.5 -66.5t6.5 -50.5q12 -17 36.5 -22.5t63.5 2.5q59 11 100 48t67 86t40 103t20 99.5t7 75.5t1 31q0 3 3 5.5t5 2.5q7 0 7 -8q0 -30 -3 -64q-2 -29 -7.5 -67t-16.5 -78q-31 -108 -87 -171t-135 -77q-23 -5 -40 -5z" />
    <glyph glyph-name="K" unicode="K" horiz-adv-x="467" 
d="M272 -41q-33 0 -60 15q-21 11 -36.5 27.5t-27.5 36t-20 41t-14 42.5q-8 -2 -15.5 -3t-13.5 -1q-17 -65 -35.5 -129t-35.5 -116q-1 -3 -6 -3h-4q-4 0 -4 8l49 244q0 6 5 6h5q3 0 7 0.5t10 1.5q5 23 10.5 45.5l10.5 44.5v2q17 62 26 102.5t10 41.5q0 9 8 7q8 -3 6 -10
q0 -2 -10 -42l-27 -104q2 -5 4.5 -27.5t9.5 -51.5q27 7 59.5 19t67 31.5t67 47.5t59.5 67q4 7 10 1q2 -1 3 -4t-1 -5q-29 -41 -62.5 -70t-68.5 -49.5t-69 -32.5t-62 -18q11 -40 32.5 -79t59.5 -59q74 -37 187 36q7 4 10 -2q2 -2 1 -5t-3 -4q-80 -52 -142 -52zM60 114
l-21 -113l15.5 57l15.5 56h-10zM90 131l19 3q-3 12 -4.5 23.5l-2.5 19.5z" />
    <glyph glyph-name="L" unicode="L" horiz-adv-x="435" 
d="M3 -122q-3 0 -5 1q-4 3 -1 10q1 1 10 9t26 20t44 26t64 25q8 15 18 50.5t20 79.5t19 91.5l16.5 87.5l12 65.5t4.5 26.5q5 6 9 5q6 0 6 -6q-1 -4 -5.5 -29l-11.5 -62l-16 -81.5t-19 -87.5t-19.5 -79t-17.5 -57q43 11 97 17t123 1q7 0 7 -5q0 -9 -7 -7q-99 6 -168.5 -8.5
t-114 -34.5t-65 -38t-21.5 -19q-3 -1 -5 -1z" />
    <glyph glyph-name="M" unicode="M" horiz-adv-x="480" 
d="M330 -133q-6 0 -7 7q-8 66 2 136t28.5 134.5t40.5 118.5t39 88l-47 -50.5l-76 -79.5q-60 -66 -105 -51q-23 8 -36.5 31t-19.5 45q-10 -47 -32 -96.5t-44.5 -91t-40 -69l-19.5 -30.5q-2 -4 -9 -2q-5 3 -1 9q0 1 10 16t24.5 39.5l32 56.5t33 67t26.5 70.5t14 66.5q2 5 6 5
q2 0 5 -1.5t3 -3.5q0 -1 2 -14.5t8 -30.5t16 -33t27 -22q36 -12 91 47l78 83.5l47 51.5l29 33q2 2 4.5 2.5t4.5 -0.5q4 -4 2 -9q-1 -1 -12.5 -23.5t-28.5 -61t-36 -89t-33 -107.5t-21 -117t1 -116q0 -7 -6 -7v-2v0z" />
    <glyph glyph-name="N" unicode="N" horiz-adv-x="423" 
d="M372 -121q-27 7 -47 19t-31 32q-14 21 -17.5 49.5t0.5 60.5t12.5 66.5t17.5 67.5l14 53t10 48.5t2 40t-10 28.5q-5 7 -15.5 11.5t-24.5 4.5q-29 0 -57.5 -21t-55 -54t-50.5 -74t-43 -80l-26 -56.5t-20.5 -47t-13 -33t-4.5 -13.5q-2 -5 -9 -4q-1 1 -2.5 3t-0.5 6
q13 48 24 97q9 42 16.5 90.5t7.5 91.5q0 6 5 6q7 0 7 -6q0 -46 -7.5 -98.5t-17.5 -98.5q12 36 30 68q20 40 44.5 82.5t52.5 76.5t58 56t62 22q17 0 30 -6t21 -16q10 -12 11.5 -30.5t-1.5 -42t-10 -50.5l-15 -57q-9 -32 -17 -65.5t-12 -64.5t-1.5 -58t15.5 -48
q11 -17 27.5 -27.5t42.5 -14.5q5 -3 5 -9q-2 -2 -3 -3.5t-3 -1.5h-1z" />
    <glyph glyph-name="O" unicode="O" horiz-adv-x="480" 
d="M130 -85q-12 0 -23 2t-22 6q-20 6 -38.5 19t-30.5 34.5t-16 51.5t4 69q18 78 53 123t72 67.5t68.5 28.5t43.5 7q25 20 52.5 26.5t52.5 -4.5q7 -3 20 -15t20.5 -38.5t4.5 -70t-28 -109.5q-18 -49 -44.5 -86t-58 -61.5t-65.5 -37t-65 -12.5zM226 307q-18 -2 -47 -10.5
t-59.5 -31.5t-57.5 -64t-42 -107q-14 -61 4.5 -102.5t65.5 -56.5q32 -9 69 -2.5t72.5 29.5t66.5 61.5t52 93.5q24 62 27.5 102t-2.5 64t-18 34.5t-19 13.5q-19 10 -41.5 4.5t-42.5 -22.5q-2 -4 -7 -4q-15 -13 -24 -30q-1 -3 -4 -3.5t-5 1.5q-5 1 -3 8q7 12 15 22z" />
    <glyph glyph-name="P" unicode="P" horiz-adv-x="469" 
d="M175 34q-14 0 -28 1.5t-26 5.5l-40 -162q0 -2 -2 -3.5t-3 -1.5h-2q-8 3 -6 9l40 166q-4 0 -6 3q-24 12 -37 23.5t-19 21.5t-6.5 17.5t1.5 12.5q6 15 25 22t42 2q7 -2 12.5 -3t11.5 -4l42 175q-23 -21 -40.5 -46.5t-28.5 -47.5t-17 -37t-7 -15q-1 -7 -10 -7q-6 4 -3 9
q1 3 10 27t28 55t47 61.5t66 45.5q67 29 146 -12q69 -34 71 -96q1 -23 -8 -47.5t-25.5 -48.5t-40 -45.5t-52.5 -38.5q-34 -20 -68 -31t-67 -11zM183 324q2 0 3.5 -2.5t0.5 -4.5l-43 -181q13 -11 22 -26.5t9 -41.5q0 -7 -7 -7t-7 7q0 20 -6 33t-14 20l-17 -65q38 -14 84 -6
t94 35q54 35 88 81.5t33 88.5q-4 54 -63 85q-74 38 -136 12q-11 -5 -22.5 -11.5t-21.5 -14.5q2 0 2 -1t1 -1zM107 137q-18 5 -33 -0.5t-20 -14.5q-4 -11 10 -26.5t44 -31.5l4 -3l17 70l-13.5 4t-8.5 2z" />
    <glyph glyph-name="Q" unicode="Q" horiz-adv-x="549" 
d="M370 -106q-26 0 -51 21q-15 13 -34 25t-39 22q-32 -17 -61 -25.5t-54 -8.5t-45.5 8t-34.5 25q-21 23 -28.5 58t-2 75.5t23 83t47.5 80.5q67 93 143 93h2q16 -1 30.5 -5t27.5 -10q28 17 63.5 21t68.5 -6q22 -6 36.5 -26.5t18.5 -49.5q3 -27 -6 -63t-33.5 -76t-67 -81.5
t-106.5 -80.5l-5 -3l34.5 -21.5t32.5 -24.5q25 -19 46 -17q9 2 17 7t13 10q6 6 12 13q0 2 3.5 2.5t5.5 -1.5q3 -1 4 -4t-1 -4q-1 0 -4.5 -5.5t-10 -11.5t-15.5 -11.5t-21 -6.5q-3 -2 -9 -2zM234 336q-65 0 -132 -85q-28 -38 -45 -78.5t-22.5 -78t1 -70t25.5 -53.5
q26 -29 70 -29.5t99 27.5q-30 14 -51.5 22.5t-21.5 9.5q-8 3 -6 10q0 2 3.5 3t6.5 0q2 -1 27 -10t59 -26l16 8q61 37 101.5 77t64 78t32 72.5t5.5 60.5q-2 24 -14.5 40.5t-31.5 21.5q-27 9 -57.5 6.5t-55.5 -16.5q20 -14 30.5 -27.5t12.5 -14.5q3 -6 -2 -9q-6 -6 -11 2
q-5 7 -11 14q-5 6 -13.5 13.5t-18.5 14.5l-2 -2q-38 -32 -36 -73q0 -6 -6 -7q-6 0 -9 7q-2 47 39 80q-10 7 -20.5 9.5t-23.5 2.5h-2z" />
    <glyph glyph-name="R" unicode="R" horiz-adv-x="506" 
d="M8 -126q-6 3 -4 9q20 69 33.5 144.5t21.5 139.5t11.5 106t3.5 44t2 4.5t4 1.5q3 0 5 -2t0 -4q0 -2 -1.5 -29t-6 -71t-11.5 -99.5t-17 -113.5q11 30 26 65t33 70q-10 16 -13.5 25.5t-3.5 10.5q0 5 2 7q1 3 7 1l25 -9q17 31 36 60t39 53.5t41.5 43.5t43.5 29q47 21 88 5
q31 -13 50.5 -35.5t24.5 -52.5q4 -31 -8.5 -60t-39.5 -51q-45 -34 -114 -36.5t-154 27.5l-8 -20q13 -25 35.5 -58.5t55 -63.5t74.5 -50.5t95 -20.5q2 0 4 -3t2 -6q0 -5 -6 -5q-53 0 -95.5 20t-75.5 49.5t-57 63t-39 59.5q-23 -45 -41.5 -88t-31.5 -77.5t-20 -55.5t-7 -22
q-5 -5 -6 -5h-3zM139 168q81 -27 145.5 -25t105.5 34q25 19 36 44.5t7 52.5q-4 26 -21 46.5t-45 31.5q-33 15 -75 -4q-21 -10 -41 -28t-39.5 -42t-38 -52t-34.5 -58zM110 164q2 -2 3.5 -4.5t3.5 -3.5q0 1 1 2t2 3z" />
    <glyph glyph-name="S" unicode="S" horiz-adv-x="472" 
d="M221 -142q-16 0 -29.5 4.5t-25.5 9.5q-22 11 -34.5 27t-12.5 33q0 8 4 19t21 20q7 0 10 -3q2 -6 -4 -9q-19 -12 -19 -27q0 -13 11.5 -26t30.5 -23q19 -11 46 -12.5t51 15.5q25 18 36 40t5 43q-7 27 -38.5 47t-79.5 26q-30 4 -60 13.5t-56.5 24.5t-45.5 34.5t-26 43.5
q-3 14 -2 31.5t10 38.5t28 45t52 51q48 39 100 62t99.5 31.5t86.5 3t63 -23.5q38 -32 15 -80q-20 -42 -49 -70t-56 -45.5t-47 -25t-22 -8.5q-6 0 -8 5q0 2 1 4.5t3 2.5l19.5 7.5t45.5 24t54.5 43.5t46.5 66q18 41 -10 65q-19 15 -54.5 21t-80.5 -1t-96 -29t-102 -64
q-51 -39 -73 -77t-11 -73q7 -23 25 -41t42.5 -31.5t53 -23t56.5 -13.5q53 -8 86 -28.5t42 -52.5q6 -26 -6.5 -51t-39.5 -45q-28 -19 -56 -19z" />
    <glyph glyph-name="T" unicode="T" horiz-adv-x="375" 
d="M154 -97q-7 0 -7 5q-1 33 9 76.5t25.5 90t34.5 91.5l35.5 81.5l28 60t12.5 26.5q3 3 10 2q2 0 3 -3t-1 -5q-1 0 -12 -22.5l-27 -58l-35 -81t-34.5 -92t-26 -90t-9.5 -76.5q0 -5 -4 -5h-2zM4 185l-5.5 5.5t-3.5 11.5q-3 33 110 90q31 15 73.5 29t89 25t93.5 19t86 11
t66.5 1t35.5 -10q7 -9 1 -19q-2 -5 -8 -1q-5 1 -3 8q3 3 0 5q-6 6 -30.5 7t-61 -2.5t-81.5 -11t-91 -18.5t-89 -25t-76 -31q-36 -18 -57 -31.5t-31.5 -22.5t-13.5 -14.5t-3 -8.5q0 -2 3 -3q1 -1 3 -1q4 -2 2 -10q-1 -3 -5 -3h-4z" />
    <glyph glyph-name="U" unicode="U" horiz-adv-x="556" 
d="M151 -89q-8 0 -15.5 1t-15.5 3q-46 14 -63 49q-11 24 -7 54.5t16 64.5t29.5 69.5l34.5 69.5l26 52t20.5 45.5t8 35t-9.5 19.5q-12 7 -31 1q-16 -6 -32 -23t-30.5 -38.5t-27 -45.5t-21.5 -44l-14.5 -33t-5.5 -14q-1 -3 -9 -3q-1 1 -2.5 3t-0.5 5q1 2 6.5 16t15 34.5
t22.5 45t28 46.5t32.5 39t35.5 24q22 7 41 -1q14 -8 15.5 -23.5t-6 -37.5t-21 -49.5l-29.5 -59.5l-34 -67.5t-28.5 -67t-15.5 -61.5t5 -51q7 -14 20.5 -25t33.5 -16q46 -13 90.5 13t85 74t75 109t61 117.5t43.5 99.5t21 56v3q0 1 1 1q2 2 4.5 3.5t4.5 -0.5q6 -2 3 -7
q-1 -1 -1 -3q-1 -2 -1 -3t-1 -2q-3 -10 -9.5 -29.5l-14.5 -45l-17 -55.5l-18 -61q-20 -69 -27.5 -110t-8 -63t2 -29.5t4.5 -8.5q7 0 5 -6t-8 -4q-6 3 -11.5 12t-5 33t8 66.5t27.5 113.5q3 9 5 18.5t4 17.5q-24 -53 -56.5 -110.5t-70 -105.5t-80 -79.5t-87.5 -31.5z" />
    <glyph glyph-name="V" unicode="V" horiz-adv-x="493" 
d="M210 -93q-9 1 -18 12t-14 31q-9 38 -7.5 89.5t4.5 104.5q3 32 5.5 63.5t2 60.5t-5 53t-14.5 41q-5 10 -10 11t-7 1q-16 -2 -35 -30t-37 -66t-33.5 -77.5t-23.5 -63.5q-3 -6 -7 -4q-5 1 -5.5 3t-0.5 5q2 6 9.5 26l18 47t24 56.5t28 54.5t30 42t30.5 19q5 1 13.5 -2.5
t16.5 -14.5q11 -19 16 -44.5t6 -55t-1 -62t-5 -64.5q-5 -50 -7.5 -101.5t7.5 -89.5q12 -31 21 -32h1q10 0 25 19.5t31.5 50.5t34 69.5l34.5 76.5l40.5 89t41 80t39.5 60.5t36 31.5q14 4 26 0q2 -1 2.5 -3.5t-0.5 -4.5q-1 -4 -3 -4.5t-4 -0.5q-5 2 -8 2t-9 -2
q-15 -5 -33 -29.5t-37.5 -60t-40 -78.5l-39.5 -85q-46 -104 -78 -164t-58 -60h-2z" />
    <glyph glyph-name="W" unicode="W" horiz-adv-x="586" 
d="M88 -102q-8 0 -13 3.5t-8 8.5q-9 12 -9.5 32.5t4.5 48.5t13.5 61.5l17.5 69.5l17.5 67t14 64t6.5 54t-6 38q-8 13 -13 13q-11 -1 -23.5 -20.5t-25.5 -48t-25 -60.5t-20 -58q0 -2 -2 -3.5t-4 -1.5q-8 4 -7 9l9 25l14 38t18 44t20.5 42t21.5 32t22 14q16 3 26 -20
q8 -15 7.5 -39.5t-5.5 -55t-14 -65.5t-19 -70l-16 -64t-12.5 -59.5t-5 -48t5.5 -30.5q5 -7 13 -7h1q16 0 35 17t38 44t37.5 61l35.5 68t30 65l22 53q2 7 7 4q7 -1 5 -7q0 -1 -2.5 -12.5t-5.5 -30t-5.5 -40.5t-2.5 -44t3.5 -41.5t12.5 -30.5q9 -13 25 -13q14 0 41.5 18
t60.5 55q17 19 41.5 55t45 87t31 115.5t0.5 142.5q0 6 6 6q2 0 4.5 -1t2.5 -3q11 -80 -0.5 -147t-32.5 -119t-46 -88.5t-42 -56.5q-29 -35 -60.5 -56t-51.5 -21q-22 0 -36 17q-9 12 -13.5 30t-5 38t1 41.5t4.5 39.5l-36.5 -79t-46.5 -85t-51.5 -67.5t-51.5 -27.5h-3z" />
    <glyph glyph-name="X" unicode="X" horiz-adv-x="369" 
d="M8 4q-3 0 -4 3t0 5q26 60 71 109t96 88q-22 68 -41.5 107.5t-34.5 60.5q-18 25 -34 33q-2 1 -3.5 3.5t-0.5 4.5q1 7 9 5q1 -1 10.5 -7.5t25.5 -28t36.5 -62t43.5 -109.5q37 27 73.5 48t66.5 35t50 21t25 7q6 0 6 -6q0 -5 -6 -5q-5 0 -25 -7.5t-49 -22.5t-65 -36t-73 -48
q11 -33 22 -72.5t22 -87.5q37 -160 99 -170q24 -4 48 10.5t43.5 33.5t31.5 36l12 17q1 2 7 2q3 -2 3.5 -5t-1.5 -4q-1 -2 -12.5 -18.5t-30 -35.5t-42.5 -34.5t-50 -15.5h-4.5t-5.5 1q-37 6 -65 52t-46 129q-11 47 -21 84.5t-20 70.5q-49 -37 -91.5 -84.5t-68.5 -102.5
q-1 -4 -4 -4h-3z" />
    <glyph glyph-name="Y" unicode="Y" horiz-adv-x="510" 
d="M167 -186q-13 0 -25.5 3.5t-23.5 11.5q-3 4 -1 10q2 3 8 2q35 -26 69 -9q34 15 62.5 53.5t52.5 90.5t43 112.5t33 119t24.5 111t16.5 87.5l-36.5 -66.5l-49.5 -86t-57.5 -91.5t-59.5 -84.5t-56 -64t-48 -29.5q-17 -2 -26 6q-17 14 -22.5 38t-4.5 53t6.5 62.5t12.5 67.5
l9.5 49t6.5 44.5t0.5 36t-8.5 22.5q-7 5 -11 5.5t-6 0.5q-11 -3 -21 -21t-18.5 -40.5t-14.5 -45t-9 -36.5q0 -6 -9 -4q-1 0 -2.5 2.5t-0.5 4.5q1 5 6 27t14 47.5t21.5 48t28.5 27.5q5 2 13 2t16 -8q9 -9 12.5 -25.5t2 -38t-6.5 -47l-11 -53.5l-12 -63.5t-7.5 -59.5t3 -50.5
t19.5 -35.5q4 -2 7.5 -3.5t9.5 0.5q23 4 55 39t67 84.5t70 106l62.5 105l45 80.5t18.5 33q1 5 7 5q2 -1 2.5 -3t0.5 -4q-1 -5 -5 -31.5t-11.5 -67t-19 -91.5t-26.5 -105t-34 -107t-42 -97.5t-50 -77.5t-58 -47q-8 -3 -16 -4t-16 -1z" />
    <glyph glyph-name="Z" unicode="Z" horiz-adv-x="355" 
d="M-3 -136q-2 0 -6 2q-2 5 0 8l340 446q-41 -9 -92 -16t-96.5 -11t-78.5 -4t-39 3q-5 0 -1 9q0 1 2.5 2t4.5 -1q5 -2 38.5 -1t80 5t99 11.5t96.5 18.5q4 1 7 -2q2 -6 -1 -7l-336 -443q26 10 78.5 25.5t121 25.5t146.5 7.5t156 -28.5q6 0 4 -8q-1 -2 -3 -3.5t-5 0.5
q-61 20 -122.5 25.5t-118 1t-106 -15t-86 -21.5t-58 -19.5t-22.5 -8.5q-1 -1 -2 -1h-1v0z" />
    <glyph glyph-name="d" unicode="d" horiz-adv-x="346" 
d="M127 22q-21 0 -34 7q-13 9 -18.5 24.5t-3.5 39.5q-31 -37 -53.5 -54t-39.5 -17h-2q-5 0 -11.5 4t-9.5 13q-5 8 -3.5 18.5t5.5 18.5q8 18 23.5 37.5t32.5 27.5q21 7 40 -9q7 -7 9 -10t4 -5t1 -5.5t-3 -4.5q-7 -3 -11 2q-1 1 -3 4l-4 4l-4 4q-9 12 -24 6q-11 -5 -25 -22
t-22 -35q-8 -19 -5 -26q4 -5 6.5 -6.5t4.5 -1.5q5 0 13 2.5t22 14.5q26 21 64 67q13 60 32.5 100t38.5 63q21 28 44.5 46t42.5 22q15 2 22 -2t9 -9q18 -28 -35 -96q-29 -38 -54.5 -64t-44.5 -39q-17 -13 -27.5 -20t-13.5 -11q-2 -1 -2 -5q-10 -50 14 -64q17 -10 58 -2
q17 4 38 12.5t45 19.5q20 10 38.5 20.5t32.5 19.5t22.5 15l8.5 6q6 2 8 -2q3 -2 2 -5.5t-3 -4.5q-14 -10 -31 -21q-14 -9 -32.5 -19.5t-38.5 -19.5q-76 -38 -123 -38zM243 337q-5 0 -5 -1q-8 0 -17.5 -5t-18.5 -12q-13 -9 -23 -20l-22 -24q-16 -21 -34 -57t-30 -87q5 2 12 7
l16 12q19 15 44.5 40t53.5 63q26 33 32 53t2 27q-3 4 -10 4z" />
    <glyph glyph-name="zero" unicode="0" horiz-adv-x="141" 
d="M35 39q-7 0 -13 2q-13 4 -19 17.5t1 36.5q8 26 21.5 43t27 26.5t24 14t11.5 4.5q4 0 6 -3q9 -3 15 -9t8.5 -23t-12.5 -48q-15 -32 -34 -46.5t-36 -14.5zM66 158q-13 -8 -28 -23.5t-23 -41.5q-8 -35 10 -41q14 -6 35 7.5t35 44.5q7 15 9.5 25t2.5 17t-2 11.5t-3 6.5
q-4 3 -7.5 4.5t-9.5 -0.5q-7 0 -9 -11q0 -1 -3 -2t-5 1q-2 0 -2 2z" />
    <glyph glyph-name="one" unicode="1" horiz-adv-x="108" 
d="M42 39q-5 0 -5 5q2 20 12.5 49t21.5 53q-5 -5 -9 -8.5t-8 -6.5q-4 -4 -8 -6q-2 -2 -4 -1t-3 3q-4 4 1 6l6 4.5t14 11.5t16.5 16t14.5 20q2 4 3 5.5t1 2.5q0 3 3 3.5t5 -1.5q4 -5 2 -7q-1 -2 -1.5 -4t-1.5 -4q-5 -9 -13.5 -26t-17 -37t-15 -40t-7.5 -33q0 -2 -2.5 -3.5
t-4.5 -1.5z" />
    <glyph glyph-name="two" unicode="2" horiz-adv-x="143" 
d="M8 39q-4 0 -4 2q-2 2 0 8q1 1 5 4q2 2 6 4.5l9 5.5q14 11 32 30.5t27 45.5q4 11 2.5 19.5t-4.5 12.5q-5 5 -12 5q-4 0 -9 -1q-5 0 -7 5q0 7 5 7q5 1 11 0q5 -1 10.5 -2.5t10.5 -6.5q13 -13 3 -42q-6 -20 -18 -37.5t-26 -28.5q11 1 25 -1.5t28 -10.5q4 -4 2 -7
q-2 -2 -4.5 -3t-4.5 1q-20 13 -37 11t-28 -7q-4 -4 -7.5 -6t-5.5 -4q-3 -2 -5 -3q-1 -1 -4 -1z" />
    <glyph glyph-name="three" unicode="3" horiz-adv-x="119" 
d="M39 37q-25 3 -31 29q-2 2 0 3l4 2q4 0 6 -3q7 -19 21 -19q11 0 21 8.5t18 27.5q10 17 3 29q-4 8 -17 10.5t-20 4.5q-9 0 -9 4t4 8l14.5 14.5t26.5 29.5q-8 -2 -16 -2.5t-13 0.5q-2 0 -4.5 1.5t-0.5 3.5q0 5 6 5q7 -1 21 2t21 4q2 0 6 -2q2 -5 0 -7q-8 -10 -22 -26
t-25 -27q10 -1 21.5 -4.5t16.5 -13.5q6 -17 -1 -39q-14 -29 -27.5 -36t-21.5 -7h-2z" />
    <glyph glyph-name="four" unicode="4" horiz-adv-x="108" 
d="M44 30q-2 0 -3.5 2t-1.5 4q-2 12 8.5 43t22.5 62q-16 -18 -33.5 -27t-26.5 -7q-5 0 -6 1.5t-3 3.5q-2 5 1.5 14.5t9.5 20.5t12.5 21.5t11.5 16.5q3 5 8 0q5 -2 0 -7q-14 -20 -23 -37.5t-9 -23.5q4 0 14 4.5t21.5 13t23 20.5t19.5 28q4 8 5 14q0 1 3 1.5t5 0.5
q2 -1 3 -3.5t-1 -3.5q-1 -4 -2 -7t-3 -7q-9 -19 -18 -41l-16.5 -42t-12 -36t-4.5 -22q5 -5 -5 -7z" />
    <glyph glyph-name="five" unicode="5" horiz-adv-x="148" 
d="M44 36q-24 0 -39 13q-9 13 -7 27t3 14q0 5 7 3q4 0 4 -8q-2 -5 -3 -10q-2 -11 6 -18q7 -6 19.5 -9t31.5 1q11 3 17 8.5t8 10.5q5 12 4.5 23t-2.5 18q-6 9 -15 14t-17 9q-7 3 -12 7t-7 9q0 7 3.5 15t8.5 15t9 11.5t5 5.5l1 1q1 0 1 0.5t1 0.5h87q6 0 6 -7q0 -5 -6 -5h-84
q-5 -6 -13 -17t-7 -20q0 -1 4 -2.5t8 -2.5q8 -5 18.5 -10.5t17.5 -17.5q5 -10 5 -24.5t-5 -26.5q-6 -10 -14.5 -16.5t-19.5 -8.5q-12 -3 -24 -3z" />
    <glyph glyph-name="six" unicode="6" horiz-adv-x="108" 
d="M34 41q-10 0 -19 5q-4 3 -7.5 7t-6 11.5t-2.5 18.5t4 26q0 2 0.5 4t0.5 4q9 29 23 44.5t28 22.5t24 7.5t11 0.5q4 0 4 -5q-2 -5 -6 -5q-1 0 -9 -0.5t-18 -5.5t-21 -15.5t-18 -30.5q2 1 3.5 1t3.5 1q15 3 29.5 -2.5t19.5 -26.5q5 -19 -2.5 -32.5t-17.5 -21.5
q-11 -8 -24 -8zM14 108q-5 -19 -2.5 -33t10.5 -19q12 -8 31 2q8 7 12.5 17.5t2.5 24.5q-3 9 -8 14t-10.5 6.5t-10.5 1t-8 -1.5q-5 -1 -9.5 -3t-6.5 -3q-1 -4 -1 -6z" />
    <glyph glyph-name="seven" unicode="7" horiz-adv-x="98" 
d="M8 52q-5 0 -5 5q0 19 9 38t21 36t24.5 30.5l20.5 21.5q-19 0 -38 1t-23 1q-6 0 -6 5q0 7 6 7q2 0 13.5 -0.5t25 -1.5t25 -1.5t12.5 -0.5q4 -2 4 -3q2 -5 -2 -7q-22 -20 -40 -41q-15 -18 -28 -40.5t-13 -44.5q0 -5 -4 -5h-2z" />
    <glyph glyph-name="eight" unicode="8" horiz-adv-x="129" 
d="M57 34q-20 0 -42 19q-8 6 -11 13.5t-3 17.5q1 9 5.5 17.5t10.5 15.5t11.5 12t8.5 7q-6 15 -5.5 28.5t12.5 27.5q13 14 25 14.5t21 -6.5q10 -9 9 -28.5t-18 -42.5q-4 -5 -7 -2q-5 4 -3 7q15 20 16.5 35.5t-6.5 22.5q-4 5 -12 2.5t-16 -11.5q-14 -15 -8.5 -31.5t16.5 -36.5
l10 -18t7 -19q5 -14 2.5 -25t-10.5 -16q-2 -1 -5 -2t-8 -1zM42 125q-6 -4 -17.5 -16t-11.5 -26q-2 -11 9 -22q15 -13 26.5 -15t17.5 3q7 4 2 27q-2 7 -6.5 16t-9.5 17q-2 5 -5 8.5t-5 7.5z" />
    <glyph glyph-name="nine" unicode="9" horiz-adv-x="146" 
d="M3 25q-6 4 -6 6q0 6 7 6q27 -2 46 11.5t30 28.5q9 13 15 27t10.5 26.5t6.5 22.5t2 15h-2q-14 -20 -36.5 -33.5t-39.5 -12.5q-7 0 -10.5 3t-5.5 6q-2 5 -1 12.5t9 16.5q11 16 23.5 23t24 8.5t20.5 -1.5t14 -6v-1h2q5 2 5 0q4 -2 5.5 -7.5t1 -12.5t-2 -14t-2.5 -13
q-6 -20 -15.5 -39.5t-23 -35.5t-30.5 -26t-38 -10h-9zM81 182q-10 0 -21.5 -6t-23.5 -22q-8 -13 -6 -18q1 -2 3.5 -2.5t3.5 -0.5q12 -1 32 10t34 31l1 1q-2 0 -8 3.5t-15 3.5z" />
    <glyph glyph-name="exclam" unicode="!" horiz-adv-x="216" 
d="M94 134q-3 2 -5.5 5t1.5 5q9 32 22 71.5l25 74l20.5 58t8.5 24.5q4 6 9 4q9 -3 7 -11q-1 0 -9.5 -23.5l-20.5 -57.5l-25 -73l-23 -70q-1 -7 -9 -7h-1zM64 39q-6 1 -6 10l8 21q1 8 10 6q3 0 5 -3.5t0 -6.5l-5 -22q-3 -5 -9 -5h-3z" />
    <glyph glyph-name="quotedbl" unicode="&#x22;" horiz-adv-x="143" 
d="M35 254q-7 1 -6 11l12 54q2 8 10 5q4 0 5.5 -3t0.5 -5l-13 -55q0 -7 -8 -7h-1zM88 270q-8 0 -8 8l10 52q0 6 7 6q4 0 6 -3t2 -6l-10 -50q0 -7 -5 -7h-2z" />
    <glyph glyph-name="numbersign" unicode="#" horiz-adv-x="376" 
d="M17 11q-2 0 -2.5 0.5t-1.5 0.5q-3 3 -1 8l142 202q5 3 7 1q4 -1 4.5 -4t-1.5 -5l-142 -201q0 -1 -2 -1.5t-3 -0.5zM120 35q-3 0 -3 1q-4 1 -2 8l126 178q4 3 10 0q2 -1 2.5 -3.5t-0.5 -4.5l-128 -178q-1 -1 -5 -1zM44 143q-7 0 -7 5q0 2 2.5 5t4.5 3q6 0 36 1.5t66.5 4.5
t70 8.5t46.5 13.5q4 2 7 -1q1 -2 0.5 -5t-2.5 -4q-8 -5 -21.5 -9t-30.5 -7t-36.5 -5l-38.5 -4q-45 -4 -97 -6zM18 80q-6 0 -6 5q0 8 6 8l14 0.5t35.5 2.5t48 5t51.5 7t46 10.5t33 14.5q2 2 4.5 2t3.5 -3q2 -2 1.5 -4.5t-2.5 -3.5q-12 -9 -34 -16t-48 -11.5t-53 -8t-49 -5
l-36.5 -2.5z" />
    <glyph glyph-name="dollar" unicode="$" horiz-adv-x="149" 
d="M141 103q-7 -20 -24 -38t-37 -24l-13 -43q-2 -5 -7 -5h-3q-6 3 -4 10l11 36q-10 0 -23 6t-21 29q-3 5 4 10q6 0 10 -6q9 -27 32 -25h2l35 115q-1 0 -1 1v2l-18 33.5t-12 35t1.5 33.5t21.5 30q31 23 56 24l9 26q1 4 3.5 5.5t4.5 1.5q8 -3 6 -12l-6 -20v-2q12 -3 20.5 -8.5
t14.5 -11t9 -10t4 -4.5q2 -8 -4 -12q-2 -1 -5 0t-5 3q-4 7 -9 12t-12 9.5t-17 6.5h-1l-43 -141q9 -18 16 -35.5t5 -31.5zM105 292q-13 -10 -17 -22t-2 -25.5t8.5 -28t14.5 -29.5l39 124q-19 -1 -43 -19zM85 58q14 8 25 20t15 29q3 8 -1.5 18.5t-9.5 23.5z" />
    <glyph glyph-name="percent" unicode="%" horiz-adv-x="265" 
d="M76 193q-8 5 -12 15.5t2 25.5q4 12 11 19t15 10.5t15.5 5t12.5 1.5h1q8 -2 14 -5.5t8 -11.5q3 -11 -2.5 -25.5t-19.5 -25.5q-5 -8 -12.5 -11t-15.5 -3q-10 0 -17 5zM80 229q-7 -16 4 -24q5 -2 12.5 -1.5t15.5 7.5q11 11 15 21t3 15q-2 6 -10 8h-1q-4 0 -17.5 -4
t-21.5 -22zM158 68q18 -7 15 -29q-5 -20 -20 -27.5t-23 -7.5h-10q-9 0 -14 4t-8 6q-4 8 -2 20t12 23q10 13 25.5 15t24.5 -4zM157 41q1 12 -6 13q-2 3 -8 3q-15 0 -23 -8q-15 -18 -8 -27q2 -4 6.5 -4t8.5 2h2q1 0 12 3.5t16 17.5zM229 267q0 2 3.5 2t5.5 -2q3 -3 0 -11
l-14 -14.5l-35.5 -38l-47.5 -52l-50.5 -57t-44 -53.5t-28.5 -41q-2 -5 -6 -5q-1 0 -1.5 1t-2.5 1q-4 3 -4 11q10 16 30 40.5l44.5 52.5l50 56.5l47.5 52l36.5 39.5t16.5 18z" />
    <glyph glyph-name="ampersand" unicode="&#x26;" horiz-adv-x="319" 
d="M175 265q15 -3 26.5 -13t19.5 -21t12.5 -19.5t4.5 -9.5q2 -4 -2 -10q-8 -3 -10 5q-1 0 -5 7.5t-11 17t-16.5 18t-19.5 10.5q-18 1 -33 -12q-13 -13 -10 -26q1 -7 7.5 -14t15.5 -13t19 -11t19 -8q16 -5 18 -8q4 -1 4 -9q-2 -2 -4 -3.5t-6 0.5q-2 1 -5.5 2l-10.5 3
q-17 5 -45.5 9.5t-52.5 -3.5q-14 -7 -23 -17t-14 -23q-20 -49 17 -80q21 -18 57.5 -21.5t74.5 20.5q2 2 5 1t4 -3q4 -7 -1 -10q-19 -12 -38.5 -17.5t-38.5 -5.5h-7.5t-6.5 2l-14 -53q-2 -5 -8 -5h-2q-2 2 -3.5 4t-0.5 6l12 49q-22 6 -43 21q-22 18 -27 43.5t6 52.5
q16 36 45 47q26 10 57 7q-8 8 -15 17t-9 18q-5 22 14 38q11 11 22 15t22 2zM200 255q-2 1 -3.5 4t0.5 6l13 32q0 8 9 6q2 -1 3.5 -4.5t0.5 -6.5l-13 -34q0 -2 -3 -2.5t-5 -0.5h-2z" />
    <glyph glyph-name="quotesingle" unicode="'" horiz-adv-x="93" 
d="M54 282q2 -2 2.5 -12t-7.5 -33l-4.5 -4.5t-3.5 -2.5t-1.5 0.5t-2.5 0.5q-2 2 -3.5 5t0.5 5q4 10 5 16.5t2 11.5v8z" />
    <glyph glyph-name="parenleft" unicode="(" horiz-adv-x="137" 
d="M133 283q5 -5 -1 -9q0 -1 -12.5 -13.5t-29.5 -34t-35 -51t-28.5 -64t-10 -72.5t20.5 -76q2 -4 -3 -11q0 -1 -4 -1q-2 0 -3.5 2t-2.5 4q-21 41 -22 81t10 76t29.5 67t36.5 53.5t31 35.5t13 14q2 2 5.5 2t5.5 -3z" />
    <glyph glyph-name="parenright" unicode=")" horiz-adv-x="151" 
d="M-39 -45q-7 3 -2 8q43 59 66.5 105t33 80t9 58t-5.5 39t-10.5 21.5t-5.5 7.5q-5 4 -2 9q7 6 10 1l8 -8t13 -23t7 -41.5t-8.5 -61.5t-33.5 -84.5t-69 -109.5q-3 -5 -7 -5q-2 0 -3 4z" />
    <glyph glyph-name="asterisk" unicode="*" horiz-adv-x="163" 
d="M132 257q7 0 7 -6q0 -8 -7 -8q-10 0 -23 -1t-26 -1l-19 -61q-2 -5 -8 -5h-2q-5 3 -5 10l12 41q-6 -5 -11 -11t-10 -11q-1 0 -2.5 -1t-2.5 -1q-6 0 -6 3q-4 7 0 11l28 25q-14 0 -24 0.5t-13 2.5q-6 4 -3 10q2 5 10 3q2 -1 14.5 -1h28.5l14 43q1 3 4 5t5 0q8 -4 5 -9
l-7 -23l18.5 15.5t9.5 7.5q2 2 5 1.5t5 -2.5q4 -8 -4 -11q-1 -1 -10 -8.5t-20 -18.5q10 1 19 1h18z" />
    <glyph glyph-name="plus" unicode="+" horiz-adv-x="255" 
d="M175 132q8 0 8 -7q0 -8 -8 -8h-56l-19 -59q0 -3 -2.5 -4t-4.5 -1h-2q-6 2 -6 10l18 54h-1q-19 0 -30 0.5t-16 1t-7 1t-3 1.5q-2 3 -1.5 6.5t4.5 4.5q3 2 7 0q5 -1 19.5 -1h32.5l19 62q3 7 9 6q4 -1 4.5 -4t0.5 -5l-19 -59q17 0 31 0.5t22 0.5z" />
    <glyph glyph-name="comma" unicode="," horiz-adv-x="182" 
d="M67 85q7 0 7 -7q-2 -1 -7 -18.5t-23 -46.5q0 -2 -5 -2q-3 0 -3 1q-9 2 -2 10q7 13 11.5 23.5t7.5 18.5q4 9 5 16q4 9 9 5z" />
    <glyph glyph-name="hyphen" unicode="-" horiz-adv-x="270" 
d="M76 117q-7 0 -9 5q0 9 9 9l92 2q5 0 6 -1.5l3 -4.5q0 -8 -7 -8l-94 -2v0z" />
    <glyph glyph-name="period" unicode="." horiz-adv-x="236" 
d="M77 36q-10 5 -6 17q0 3 3.5 5t6.5 2q2 -2 3 -0.5t1 0.5h5q2 2 4 0.5t4 -3.5q6 -6 0 -13q-3 -2 -6.5 -5.5t-10.5 -3.5q-4 0 -4 1z" />
    <glyph glyph-name="slash" unicode="/" horiz-adv-x="227" 
d="M246 326q4 -7 0 -10l-249 -305q-2 -1 -3 -2t-3 -1q-3 0 -4 2q-5 4 -1 10l250 304q3 5 10 2z" />
    <glyph glyph-name="colon" unicode=":" horiz-adv-x="265" 
d="M108 168q9 -5 9 -9v-8q-4 -5 -15 -5q-8 0 -9 1q-7 4 -3 10q2 5 2 6t2 5q1 2 6.5 2t7.5 -2zM80 78q10 -5 10 -9.5v-5.5q-8 -9 -14 -9q-7 0 -10 3q-7 4 -5 10q5 2 8.5 8.5t10.5 2.5z" />
    <glyph glyph-name="semicolon" unicode=";" horiz-adv-x="265" 
d="M117 168q-4 4 -2 10q0 2 0.5 4.5t3.5 7.5q1 2 6.5 2t7.5 -2q11 -5 10.5 -10t-2.5 -6q-3 -8 -14 -8q-7 0 -10 2zM70 22q-2 0 -3 1t-3 2q-2 3 -1 6t3 5q6 5 11 10q9 9 17 22q1 3 1 8h-2q-2 1 -5 3t-3 5q0 5 3.5 7t5.5 0q1 0 6.5 -1.5t8.5 -8.5q5 -9 -1 -21
q-8 -14 -20 -24.5t-12 -11.5q-2 -2 -6 -2z" />
    <glyph glyph-name="less" unicode="&#x3c;" horiz-adv-x="261" 
d="M184 183q2 2 5 1.5t4 -2.5q6 -7 -1 -11l-108 -74l48 -63q2 -9 -1 -10q-1 -2 -6 -2q-4 0 -5 2l-53 71q-1 0 -1 7q0 3 2 3l116 78v0z" />
    <glyph glyph-name="equal" unicode="=" horiz-adv-x="313" 
d="M182 136q2 0 5 -2t3 -4q0 -4 -3 -6.5t-5 -2.5h-91q-8 0 -8 9q0 6 8 6h91zM177 77q8 0 8 -9q0 -5 -8 -5h-117q-7 0 -7 5q0 9 7 9h117z" />
    <glyph glyph-name="greater" unicode="&#x3e;" horiz-adv-x="227" 
d="M124 95q1 -1 1 -4q0 -2 -4 -6l-103 -67q-1 0 -1.5 -0.5t-2.5 -0.5q-3 0 -4 5q-4 2 -2.5 4.5t4.5 3.5l96 64l-54 76q-2 6 2 10q7 4 10 -3l58 -82v0z" />
    <glyph glyph-name="question" unicode="?" horiz-adv-x="301" 
d="M261 317q5 -13 1 -26t-12 -25t-18.5 -22.5l-17.5 -17.5q-1 -1 -17.5 -14t-37 -33.5t-39 -45t-22.5 -48.5q-1 -1 -3 -2.5t-4 -1.5h-1q-7 3 -6 10q5 25 23.5 50t39 45.5t38 34.5t19.5 16q53 47 42 74q-10 20 -47 17q-20 0 -35 -11.5t-25.5 -24.5t-16.5 -24t-7 -11
q-2 -5 -10 -3q-6 2 -3 9q0 1 6.5 13.5t18.5 27.5t30 27.5t42 12.5q23 1 39.5 -6t22.5 -21zM78 20q5 -2 7 -6t0 -9q-1 -6 -9 -10q-7 0 -10 4t-3 5q-5 7 3 10l6 4q5 3 6 2z" />
    <glyph glyph-name="at" unicode="@" horiz-adv-x="390" 
d="M345 178q6 -2 5 -8q-12 -40 -28.5 -69t-40.5 -49.5t-57 -33.5t-77 -20l-16 -2t-16 -1q-58 0 -80 40q-17 25 -10.5 60.5t33.5 70.5q24 33 52.5 50t56 21.5t52.5 -0.5t42 -16q12 -9 17 -26.5t0 -37.5q-5 -29 -23.5 -55.5t-44.5 -33.5q-11 -2 -17.5 1t-9.5 7q-7 7 -8 18.5
t0 25.5q-5 -10 -12.5 -19t-15.5 -16q-26 -14 -45 0q-13 13 -12 33t20 43q11 14 23.5 20.5t23.5 6.5q13 0 21 -4.5t12 -8.5q2 2 2 4v1q1 3 4 4t6 1q2 -2 4 -5t-1 -5q-4 -11 -7.5 -24.5t-6 -26.5t-2.5 -23.5t4 -15.5q2 -1 4.5 -2t7.5 1q22 5 38 27t22 46q5 38 -12 52
q-15 10 -37.5 14.5t-47.5 0t-51 -20.5t-49 -46t-28.5 -62t9.5 -54q11 -20 35.5 -27.5t59.5 -0.5q42 7 73 19t53.5 31.5t38.5 46.5t27 64q0 2 3.5 4t5.5 0zM137 98q15 12 27 30.5t19 32.5l-1 2q-3 2 -7 5q-8 6 -18 6q-17 0 -35 -23q-15 -18 -16 -32t4 -22q5 -5 13 -4.5
t14 5.5z" />
    <glyph glyph-name="bracketleft" unicode="[" horiz-adv-x="236" 
d="M205 303q9 0 9 -7t-9 -7h-71l-33 -92t-28 -84t-19 -64.5t-5 -34.5q8 -3 26.5 -1.5t31.5 4.5q6 0 8 -6q3 -8 -6 -8q-3 -2 -15.5 -4t-26.5 -2q-8 0 -16 1t-12 5q-3 1 -5 4.5t0 19t11 46t29 85.5q8 27 16.5 52l15.5 44.5l11.5 31.5t4.5 13q3 4 8 4h75v0z" />
    <glyph glyph-name="backslash" unicode="\" horiz-adv-x="178" 
d="M98 11q2 -5 0 -6.5t-5 -3.5q-7 0 -9 7l-62 318q0 7 7 10q6 0 8 -8z" />
    <glyph glyph-name="bracketright" unicode="]" horiz-adv-x="200" 
d="M68 307q3 1 13.5 3.5t22.5 4t23 0t17 -8.5q4 -4 6 -11t-3 -18q-3 -9 -10 -28t-15 -43l-36 -103.5t-23 -61.5t-14.5 -29.5t-9.5 -7.5h-25h-45q-2 0 -4.5 3.5t-2.5 5.5q0 3 2.5 6t6.5 3q14 -1 26 -2q11 -1 22 -1t17 1q5 6 14 27.5t19.5 50l21 59.5l18.5 54q8 24 15 43t9 28
q2 4 2.5 8t-2.5 6q-5 6 -25 3.5t-37 -7.5q-6 0 -8 5q-3 8 5 10z" />
    <glyph glyph-name="asciicircum" unicode="^" horiz-adv-x="224" 
d="M160 238q2 -2 2.5 -5t-1.5 -4q0 -2 -2 -4q-1 -1 -2 -1h-6q-5 4 -10 14.5t-9.5 23.5t-8 26.5l-6.5 24.5l-78 -63q-2 -2 -5.5 -1.5t-5.5 2.5q-3 3 1 12l88 70q3 4 7 1q1 -1 3 -2.5t2 -3.5q3 -15 7 -30.5t8 -28t8.5 -21.5t7.5 -10z" />
    <glyph glyph-name="underscore" unicode="_" horiz-adv-x="255" 
d="M147 29q2 1 5.5 -0.5t4.5 -4.5q0 -6 -8 -9q-11 -2 -25 -2.5t-31 -0.5q-30 0 -56.5 1t-31.5 1q-5 2 -5 10q2 7 8 5q1 0 17 -1t38.5 -1.5t45.5 -0.5t38 3z" />
    <glyph glyph-name="grave" unicode="`" horiz-adv-x="150" 
d="M40 333q3 -2 12 -8.5t18.5 -15.5t17 -18.5t7.5 -18.5q0 -7 -7 -7q-8 0 -8 7t-16 22.5t-33 26.5q-4 4 -2 10q3 8 11 2z" />
    <glyph glyph-name="braceleft" unicode="{" horiz-adv-x="195" 
d="M238 343q6 -6 2 -10q-3 -8 -10 -3l-5 2.5t-12 4.5t-16 3t-17 -3q-15 -5 -20 -26q-14 -49 -26.5 -81t-23 -51t-18.5 -28t-14 -12q5 -9 8 -29.5t-10 -52.5q-22 -48 -9 -64q7 -12 45 -7q8 0 8 -8q0 -2 -2 -4.5t-4 -2.5q-5 -2 -9.5 -2h-10.5q-27 0 -40 15q-17 23 6 79
q9 20 10.5 34t-1 23t-5.5 13.5t-3 5.5q-3 2 -3 8q4 4 9 3q3 0 10 4.5t17 21.5t23 50t29 90q6 26 29 36q10 4 21 3.5t20 -3.5t15.5 -6z" />
    <glyph glyph-name="bar" unicode="|" horiz-adv-x="198" 
d="M157 369q8 -4 6 -9l-100 -326q0 -4 -2.5 -5t-4.5 -1h-3q-3 1 -3.5 3.5t-0.5 4.5l100 328q0 2 3.5 4t4.5 1z" />
    <glyph glyph-name="braceright" unicode="}" horiz-adv-x="282" 
d="M74 350q2 1 11.5 2.5t21.5 2t23.5 -2t17.5 -9.5q13 -13 2 -37l-4.5 -11.5t-4.5 -12.5l-14 -35.5t-12 -35.5t-7 -31.5t2 -22.5q2 -1 4 -3.5t5 -3.5q5 -3 5 -6q0 -7 -7 -7q-11 -1 -25 -5.5t-16 -11.5v-3q-48 -150 -93 -153h-2q-7 0 -7 7q0 8 7 8q4 1 12 5.5t18 19t22.5 42
t26.5 74.5l1 4q4 10 15 16.5t22 8.5q-1 0 -3 1q-4 10 -2.5 26t7 34.5t12.5 38t15 38.5q3 7 5 13t5 11q6 15 0 22q-3 4 -10.5 5.5t-16.5 1.5t-18 -1.5l-15 -2.5q-2 0 -5.5 1t-3.5 6q-2 4 6 7z" />
    <glyph glyph-name="asciitilde" unicode="~" horiz-adv-x="358" 
d="M268 143q2 2 5.5 2t5.5 -4q2 -2 2 -4.5t-3 -4.5q-18 -17 -41 -17q-16 0 -31 4.5t-32 11.5q-6 2 -10 3t-7 3q-17 5 -32.5 3.5t-27.5 -6.5q-14 -5 -26 -14q-4 -4 -10 0q-1 2 -0.5 5.5t2.5 5.5l8 6t21.5 11.5t31 7t37.5 -5.5q4 -1 8.5 -2.5t7.5 -3.5q29 -10 51 -14t40 13z
" />
    <glyph glyph-name="a.calt" unicode="&#xe000;" horiz-adv-x="560" 
d="M556 148q2 -1 2.5 -4.5t0.5 -6.5q-5 -5 -12 -1q-30 18 -70 17t-83.5 -13t-88 -30.5l-83.5 -35.5q-39 -19 -67 -31t-45 -12q-13 0 -17 11q-7 14 -2.5 33.5t12.5 34.5q-11 -8 -23 -15.5t-20 -16.5q-35 -24 -58 -36.5t-43 -1.5q-12 6 -12 23q-2 16 11 33t37 34q28 20 49 11
q13 -4 19 -12q4 -4 5 -9q0 -8 -2 -10q-8 -3 -10 4q-1 3 -4 6q-2 2 -5 4.5t-7 4.5q-8 2 -17 -0.5t-19 -11.5q-25 -17 -35 -30.5t-8 -23.5q0 -8 7 -11q14 -8 34 4t50 35q14 11 31 22.5l37 25.5q5 5 10 -2q3 -5 0 -8q-4 -6 -10 -16.5t-10.5 -22t-7 -23t1.5 -18.5q2 -5 13 -2.5
t27.5 8.5t35.5 14t36 16l86 37.5t91.5 31.5t87.5 12.5t75 -18.5z" />
    <glyph glyph-name="b.calt" unicode="&#xe001;" horiz-adv-x="530" 
d="M253 134q31 8 71 15t79.5 7.5t73 -7t51.5 -28.5q4 -5 0 -9q-5 -5 -10 0q-26 29 -97.5 31t-180.5 -26q-43 -11 -81 -23.5t-69 -25.5q-5 -11 -13.5 -22.5t-18.5 -20.5q-25 -22 -46 -22q-6 0 -11 1.5t-10 7.5q-6 3 -4 10q3 11 29 27t64 31q5 13 0 20q-2 3 -4 4t-8 1
q-11 0 -26 -10.5t-31 -25.5t-30 -30.5l-22 -24.5q-3 -3 -8 -2q-4 4 -2 10l21.5 50.5t22.5 47.5q-1 0 -1 1q-1 1 -1 3q-1 6 6 8h4q31 57 63 99t61.5 69t53 40.5t38.5 14.5q11 0 16 -4t7 -6q7 -14 -4 -35t-24 -38q-34 -42 -66 -69.5t-58.5 -45t-46.5 -26t-30 -11.5
q-8 -14 -16.5 -30.5l-16.5 -32.5q20 21 45 42t45 21q15 0 23 -11q3 -5 3.5 -10.5t0.5 -13.5q37 15 77.5 27.5t80.5 21.5zM219 343q-13 -1 -35 -13.5t-48.5 -37.5t-56.5 -63t-59 -90q13 4 32 14t43 26.5t51 41.5t56 61q19 22 23.5 36t3.5 19q-4 6 -8 6h-2zM49 36q6 5 11 11.5
t8 12.5q-29 -14 -47 -23.5t-20 -14.5q6 -5 13 -4.5t14 3.5t12.5 7.5t8.5 7.5z" />
    <glyph glyph-name="c.calt" unicode="&#xe002;" 
d="M511 137q4 0 5.5 -2.5t0.5 -4.5q0 -4 -3.5 -6t-5.5 0q-57 12 -111.5 8t-104 -18t-94 -33t-81.5 -37q-37 -17 -65.5 -28.5t-47.5 -12.5h-4q-23 0 -33.5 8.5t-14.5 17.5q-4 12 -1 27t10 29.5t17 27t20 18.5q8 5 15 7t12 -2q14 -5 19 -18.5t7 -15.5q0 -9 -7 -9q-2 -2 -4.5 0
t-3.5 4q0 5 -4.5 14t-9.5 11q-5 5 -18 -2q-7 -6 -14.5 -16.5t-13.5 -23t-9.5 -25t-0.5 -21.5q8 -20 37 -17q18 0 45 11.5t61 27.5l84.5 38t96.5 33.5t106.5 18t114.5 -8.5z" />
    <glyph glyph-name="d.calt" unicode="&#xe003;" horiz-adv-x="564" 
d="M556 168q6 0 6 -7q0 -4 -8 -4q-64 2 -120 -7.5t-104 -24.5t-87 -33l-68 -32q-36 -18 -60 -26.5t-35 1.5q-9 5 -10.5 19t1.5 37q-62 -69 -93 -69h-4q-4 0 -10 3t-9 12q-5 9 -3.5 19.5t5.5 19.5q8 18 23 37.5t32 27.5q20 6 34 -4.5t20 -19.5q3 -8 -3 -10q-2 -2 -5.5 -1.5
t-4.5 3.5l-2.5 4t-7 8t-11.5 6.5t-15 -0.5q-12 -5 -26 -22t-20 -37q-4 -8 -5.5 -14.5t2.5 -11.5q3 -7 8 -7q4 0 11 2t19 10t29 25t41 47q11 54 30 96t41.5 71t46 45t42.5 19q13 2 20 -1.5t9 -8.5q18 -28 -35 -96q-25 -33 -48.5 -56.5t-42 -39.5t-32 -25l-19.5 -13v-5
q-11 -52 2 -59q6 -5 27.5 3.5t50.5 24.5l69.5 31.5t88 32.5t106.5 24t124 6zM238 336q-14 -2 -34 -16t-41 -39.5t-39.5 -63t-30.5 -86.5q18 11 52 40t74 82q26 32 32 52t2 28q-3 4 -10 4q-5 0 -5 -1z" />
    <glyph glyph-name="e.calt" unicode="&#xe004;" horiz-adv-x="530" 
d="M526 134q-2 -6 -8 -4q-48 10 -97.5 6.5t-96.5 -14t-91 -25.5l-83 -29q-42 -14 -74.5 -23.5t-55.5 -9.5q-9 0 -16.5 1t-13.5 6q-17 13 -14 43q2 41 36 54q13 5 26 4t18 -7q8 -9 4 -19q-3 -12 -16 -19q-13 -5 -28.5 -0.5t-17.5 4.5t-2.5 0.5t-2.5 1.5q-2 -3 -2.5 -8
t-2.5 -11q0 -23 12 -32q7 -5 21 -4.5t33 5.5t43 13l50 17l82.5 27.5t93 25t98.5 13.5t100 -6q5 -3 5 -10zM17 125q-3 -1 -8 -3t-8 -7q2 0 3 -1q5 -2 16 -4t20 2q2 2 4.5 4t4.5 4q0 5 -3 5q-9 10 -29 0z" />
    <glyph glyph-name="f.calt" unicode="&#xe005;" horiz-adv-x="433" 
d="M433 144q0 -8 -7 -8q-61 0 -108.5 -13.5t-91.5 -29.5q-36 -13 -71.5 -23.5t-77.5 -15.5q-21 -1 -38 2.5t-28 9.5q8 -19 13.5 -42.5t10.5 -52.5q3 -33 -2 -64.5t-16 -58.5t-26.5 -47.5t-31.5 -30.5q-15 -9 -27 -9q-5 0 -8.5 0.5t-8.5 2.5q-29 20 -22 101q6 73 31.5 134.5
t55 105.5t53 68.5t24.5 24.5q3 4 10 0q2 -6 0 -10l-24 -24t-52 -69q2 -1 2 -1.5t2 -0.5q4 -6 23 -16.5t58 -8.5q42 5 76 15.5t70 23.5q44 17 92.5 30t111.5 13q7 0 7 -6zM20 -31q-4 29 -9.5 51.5t-15.5 39.5q-5 12 -8 17.5t-4 6.5q-27 -42 -49 -98t-27 -122q-2 -25 -1 -41
t4 -26t6.5 -14.5t6.5 -5.5q7 -5 14.5 -2t12.5 6q13 8 27 26.5t24.5 43.5t16 55t2.5 63z" />
    <glyph glyph-name="g.calt" unicode="&#xe006;" horiz-adv-x="445" 
d="M450 147q-2 -6 -9 -6q-92 6 -182.5 -21t-165.5 -71q-15 -37 -35 -78.5t-44.5 -77t-54 -58.5t-63.5 -24q-25 0 -31 14q-11 20 13 59q11 18 31 40t46 45t58 46t68 43q8 20 14.5 38.5l11.5 32.5q-35 -33 -62 -41t-41 3q-8 7 -10 19.5t10 30.5q20 25 42 25q17 0 28 -9t11 -10
q7 -4 0 -10q-1 -2 -4 -2t-5 2q0 2 -8 9.5t-19 7.5q-17 0 -32 -22q-7 -9 -9 -17t4 -12q10 -8 39 3t66 52q2 3 8 3q4 -2 4 -7q-2 -4 -9 -27.5t-20 -58.5q77 42 164 67.5t178 20.5q2 0 5 -3.5t3 -5.5zM-104 -175q28 1 54 21t48.5 51t41.5 68t34 72q-66 -38 -114.5 -81.5
t-69.5 -77.5q-20 -33 -13 -45q2 -5 8 -6.5t11 -1.5z" />
    <glyph glyph-name="h.calt" unicode="&#xe007;" horiz-adv-x="481" 
d="M465 166q8 0 5 -8q0 -1 -2.5 -3.5t-4.5 -0.5q-32 4 -69 -2.5t-74.5 -20t-74.5 -30.5l-70 -33q-48 -23 -71.5 -32t-32.5 -1q-6 2 -4 17q3 17 2 24t-1 8q-6 6 -15 6q-12 -1 -25.5 -10t-26.5 -21t-24.5 -25l-17.5 -20q-2 -2 -4 -2h-5q-3 2 -3 10q11 26 22.5 50.5t23.5 47.5
q-3 0 -3 4q-2 4 1 5.5t6 2.5h3q31 57 63.5 99t62 69t53 40.5t38.5 14.5q11 0 16 -4t7 -6q4 -7 2.5 -16t-6.5 -19t-11.5 -19.5t-13.5 -18.5q-34 -42 -65.5 -69.5t-58 -45t-46.5 -26t-30 -11.5l-17 -31.5t-17 -34.5q17 17 37 32.5t38 16.5q17 2 26 -10q2 -2 5 -12t-3 -32v-5
q4 -1 13 2.5l21.5 8.5t27 12l29.5 14l69.5 33.5t76.5 30.5t77 19.5t71 1.5zM217 343q-13 -1 -34.5 -13.5t-48 -37.5t-56.5 -63t-60 -90q13 4 33 14t43.5 26.5t50.5 41.5t55 61q20 22 25 36t4 19q-4 6 -8 6h-4z" />
    <glyph glyph-name="i.calt" unicode="&#xe008;" horiz-adv-x="392" 
d="M384 141q-56 6 -104.5 0t-89 -18.5t-73.5 -28l-57 -27.5q-19 -11 -33.5 -17t-23.5 -6q-14 0 -17 9q-5 9 -2.5 24.5t7.5 30.5t10 27t7 14q3 8 9 5q6 -5 3 -10q-5 -9 -10 -21t-8.5 -24t-5 -22.5t1.5 -16.5q4 -5 20 2t35 18q25 13 58 28.5t74.5 27.5t91 18.5t107.5 1.5
q4 0 5 -3.5t1 -5.5q0 -6 -6 -6zM36 200q-7 0 -12 9q-2 2 -1 4l2 4q2 2 4.5 3.5t7.5 0.5q5 -3 5 -11q2 -5 -0.5 -6.5t-4.5 -3.5h-1zM30 212q-1 -1 -1 -2l2 -1q4 -4 4 0z" />
    <glyph glyph-name="j.calt" unicode="&#xe009;" horiz-adv-x="397" 
d="M386 157q6 0 6 -8q-2 -6 -8 -6q-116 4 -217 -23t-181 -69q-15 -38 -35 -79.5t-45 -77t-54.5 -59t-63.5 -24.5q-15 0 -23 4.5t-11 11.5q-10 20 11 61q23 35 76.5 82.5t132.5 89.5q15 41 23 69q4 15 8 28q4 4 10 4q7 0 7 -7q-3 -4 -9 -27t-20 -57q40 20 85 37t94.5 29
t103 17.5t110.5 3.5zM-212 -175q29 1 55 21.5t48.5 52t41.5 69.5t33 73q-71 -41 -119 -84.5t-70 -75.5q-19 -34 -12 -47q4 -5 11 -7t12 -2zM22 200q-6 0 -10 9q-2 4 1 8q5 5 12 4q5 -3 5 -11q1 -5 -1 -6.5t-4 -3.5h-3zM18 212q-1 -1 -1 -2l1 -1q4 -3 4 0z" />
    <glyph glyph-name="k.calt" unicode="&#xe00a;" horiz-adv-x="493" 
d="M484 130q5 0 7 -3t2 -5q-2 -2 -3 -4.5t-6 -0.5q-82 3 -151.5 -15t-120.5 -38l-45 -14.5t-36 -9.5q-72 -9 -100 13q-7 8 -10 16t-3 11q-17 -17 -32 -36t-23 -30q-4 -2 -6 -2h-5q-3 3 -2 10l22.5 51l22.5 47q0 2 -2 4q0 8 7 8h3q31 58 63.5 100t62 69t53.5 40t39 14
q10 2 15 -3l7 -7q4 -7 2 -16t-6.5 -18.5t-11.5 -19l-13 -17.5q-34 -42 -65.5 -70.5t-58.5 -45.5t-47 -25.5t-31 -11.5q-7 -13 -14 -27.5l-14 -29.5q20 22 43 43t43 23q14 1 24 -9q1 -1 1 -4q0 -2 -2 -13.5t-13 -20.5q-9 -5 -20 -8.5t-25 -0.5q1 -3 2.5 -5.5t3.5 -4.5
q9 -8 28.5 -12t59.5 1q15 3 34.5 9.5l45.5 14.5q25 10 56 20t65.5 18.5t73 12.5t80.5 2zM221 343q-13 -1 -34.5 -13.5t-48 -37.5t-56.5 -63t-60 -90q13 4 32.5 14t43.5 26.5t51 41.5t55 61q19 22 24 36t1 19q0 6 -7 6h-1zM28 90q29 -8 42 3q11 10 11 21q-1 1 -3.5 2t-6.5 -1
q-8 -1 -19.5 -7.5t-23.5 -17.5z" />
    <glyph glyph-name="l.calt" unicode="&#xe00b;" horiz-adv-x="537" 
d="M530 168q8 0 8 -7q-1 -5 -8 -4q-44 3 -95 -8.5t-101 -29.5t-95.5 -39l-78.5 -36l-39 -19t-26 -10q-20 -4 -42 -4q-29 0 -43 11q-11 7 -17 19t-5 25q0 55 26 104t63 88t76.5 65t65.5 34q25 8 35 -5q11 -14 -20 -53q-41 -52 -79 -82.5t-67.5 -46t-48 -20t-19.5 -4.5
q0 -1 -1 -2h-1q-6 -18 -10.5 -38t-4.5 -40q0 -6 2 -16t12 -16q22 -19 76 -5q7 2 22.5 9l38.5 18l79 37.5t97 39.5t103 28.5t97 6.5zM223 344q-18 -6 -45 -22t-55 -40t-54.5 -54.5t-43.5 -66.5q9 2 28.5 9.5t45.5 24t58 44t65 68.5q9 11 12.5 18t5.5 12t1 8h-1q-1 0 -1 0.5
t-1 0.5h-6.5t-8.5 -2z" />
    <glyph glyph-name="m.calt" unicode="&#xe00c;" horiz-adv-x="457" 
d="M657 156q3 0 5 -3t2 -5q0 -7 -7 -7q-68 0 -119.5 -9.5t-91 -24.5t-69.5 -33t-54 -34q-29 -19 -52 -31t-49 -12q-8 0 -13 1q-27 3 -36 19q-9 11 -7.5 25.5t4.5 28.5q3 17 3 27t-7 14l-2 2h-1q-5 -2 -11 -12l-11 -19q-7 -17 -15.5 -29t-20.5 -10q-9 0 -12 7q-6 10 -1.5 28
t11.5 38q4 10 6 18t5 14v1q-7 -7 -20 -24.5t-33 -54.5q-33 -55 -66 -67q-19 -2 -19 1q-10 5 -9 23t8 41.5t18 49t21 45.5q2 2 5 3t5 -1q3 0 4 -3t0 -5q-12 -25 -22 -49t-16.5 -43.5t-9 -32t0.5 -15.5q6 -2 17 3q8 5 21 17.5t30 41.5q21 36 34 54.5t21 26t11.5 7t5.5 -1.5
q8 -2 8 -9.5t-2 -9.5q-2 -8 -4.5 -16.5t-5.5 -16.5q-5 -15 -9.5 -32t-2.5 -22q0 -2 2 -2q5 -1 11 10l12 22q5 13 12.5 23t15.5 14q2 2 6.5 1.5t9.5 -4.5q14 -8 13 -23.5t-4 -32.5q-2 -11 -4 -23.5t5 -20.5q6 -10 26 -12q27 -5 51 7t56 32q24 16 54.5 34.5t71 34.5t93 26
t121.5 10z" />
    <glyph glyph-name="n.calt" unicode="&#xe00d;" horiz-adv-x="642" 
d="M633 168q7 0 7 -7q0 -4 -7 -4q-74 0 -134 -8t-109 -20t-88 -26l-71 -26q-20 -8 -39.5 -15l-37.5 -13q-42 -11 -54 3q-9 8 -9 20t2 25q1 8 1.5 16t-1.5 11h-2q-1 0 -2.5 0.5t-3.5 0.5q-9 1 -23 -9.5t-29 -28t-29 -37.5t-23 -37q-4 -2 -7 -2q-1 0 -3 1q-7 2 -3 8q4 8 10 29
l12 44q7 26 14 56q0 4 3 6t5 1q2 0 4 -3.5t1 -5.5q0 -1 -2 -9l-5 -20t-7 -26.5l-8 -28.5q10 13 22 27t24 25.5t24 19t23 6.5q11 -4 15 -9q5 -6 5 -16t-1 -21q-2 -9 -2.5 -18.5t3.5 -13.5q5 -4 13.5 -4.5t28.5 4.5q18 5 37 12.5l40 15.5l70 26t88.5 25t110.5 18.5t137 7.5z
" />
    <glyph glyph-name="o.calt" unicode="&#xe00e;" horiz-adv-x="573" 
d="M573 130l-3 -6t-6 -2q-75 3 -134 1t-106.5 -6.5t-84 -10.5l-64.5 -11l-53.5 -8.5t-41.5 -2.5q-3 0 -7 0.5t-7 0.5q-5 -13 -10.5 -23.5t-14.5 -19.5q-11 -11 -24 -18t-26 -7h-5q-8 1 -16.5 6.5t-13.5 20.5q-11 22 -1 41q3 11 10 19t14 13t13 8l8 4v4q0 14 4.5 24.5
t15.5 16.5q8 5 17.5 4t19.5 -5q8 -7 13.5 -18.5t5.5 -27.5q0 -15 -6 -27q4 -2 10 -2q18 -2 40.5 2t53.5 9q28 5 65 11t84 10.5t106.5 6.5t134.5 -1q9 0 9 -6zM30 53q16 15 23 35q-21 4 -32 11.5t-17 15.5q-3 -1 -16.5 -9.5t-21.5 -24.5q-6 -15 2 -32q2 -9 7.5 -13.5
t11.5 -5.5q10 -1 21.5 5t21.5 18zM61 127q3 27 -12 34q-8 3 -10 3q-9 0 -12 -3q-14 -6 -14 -28q1 -14 14 -21.5t30 -9.5q2 6 2.5 12.5t1.5 12.5z" />
    <glyph glyph-name="p.calt" unicode="&#xe00f;" horiz-adv-x="640" 
d="M625 130q2 1 4.5 -1.5t2.5 -6.5q0 -5 -7 -5q-90 -7 -161 -20.5t-131 -28.5q-51 -11 -96.5 -19.5t-87.5 -8.5q-26 0 -48.5 2.5t-39.5 6.5h-3q-12 -4 -21.5 -1t-14.5 10q-20 -37 -38.5 -79t-32.5 -78t-22.5 -60t-8.5 -25q-3 -3 -9 -3h-3q-3 2 -2 10l98 328q1 5 4.5 5.5
t5.5 0.5q3 0 5.5 -3.5t0.5 -5.5l-51 -162q13 29 28 58.5t30.5 54.5t31 43t29.5 24t26 0q26 -8 23 -34q-1 -20 -17 -40t-36 -32q14 -3 30.5 -5t34.5 -2q42 0 86 9t95 21q60 14 132 27t163 20zM61 64q11 4 22 12t20 17.5t15 19.5t7 19q0 9 -4 14.5t-13 10.5h-6t-8 -1
q-15 -9 -31.5 -30.5t-33.5 -51.5q9 -4 32 -10z" />
    <glyph glyph-name="q.calt" unicode="&#xe010;" horiz-adv-x="613" 
d="M606 146q7 -3 7 -9t-8 -6q-41 2 -77 -1.5t-69 -10t-63.5 -16t-59.5 -19.5q-43 -15 -87 -28t-93 -17q-23 -2 -40 -3t-26 -1q7 -18 10 -38.5t3 -42.5t-4 -43t-11 -39q-16 -38 -44 -47q-2 -2 -5 -2h-5q-8 0 -16 4q-8 8 -8 25.5t4.5 40t12.5 48t16.5 49.5t17 44.5l13.5 33.5
l13 31t13 28q-26 -33 -52 -50.5t-47 -13.5q-15 1 -23 17q-6 22 15 45q22 24 47 24q15 0 26.5 -8t16.5 -12q2 2 2.5 3.5t2.5 3.5q16 21 25.5 32.5t14 16t6 4.5t3.5 -1q5 -3 4.5 -7t-10.5 -24l-20.5 -40.5t-25.5 -53.5q-2 -10 -4 -14q3 0 23.5 0.5t49.5 2.5q48 5 90 17l87 26
q30 11 60.5 21t64.5 17.5t71 11t79 1.5zM4 76q12 0 30 8t42 33q-5 3 -14 10t-22 7h-1q-9 0 -18 -4t-17 -13q-18 -19 -13 -32q2 -5 6 -6.5t7 -2.5zM76 -122q6 17 9.5 37.5t3.5 41.5t-3.5 41t-9.5 36q-15 -38 -26.5 -71.5t-18 -59.5t-7.5 -43t5 -23q0 -1 2 -1t3.5 -0.5
t5.5 1.5q14 4 22 17t14 24z" />
    <glyph glyph-name="r.calt" unicode="&#xe011;" horiz-adv-x="459" 
d="M450 168q8 -3 5 -7q-1 -4 -10 -4q-29 11 -59.5 6.5t-56.5 -14.5q-30 -11 -59 -29q-46 -26 -83.5 -34t-66 -6.5t-48 9t-28.5 13.5q-13 -26 -24.5 -42.5t-21.5 -27.5q-11 -12 -22 -20q-1 0 -1.5 -0.5t-1.5 -0.5h-2q-2 0 -2.5 0.5t-2.5 0.5q-3 2 -3 8q17 33 24.5 55t10.5 36
q4 16 2 25q-2 4 -0.5 6.5t3.5 4.5q1 1 4 0t5 -4q0 -1 1 -6t0.5 -16.5t-5 -29.5t-15.5 -45l20 28t23 40q0 3 4 3q2 2 3 1t3 -1q1 -1 16.5 -9.5t43 -12.5t67.5 2.5t90 34.5q1 1 18 11.5t44 20t60 13.5t65 -9z" />
    <glyph glyph-name="s.calt" unicode="&#xe012;" horiz-adv-x="537" 
d="M530 133q5 -3 0 -11q-2 -2 -4.5 -2t-4.5 2q-22 19 -64 22t-89.5 -4t-92.5 -19.5t-73 -23.5q-42 -16 -69.5 -34.5t-42.5 -33.5q9 -7 16.5 -13.5t13.5 -15.5q8 -11 9.5 -24.5t-2.5 -24.5q-8 -18 -30 -23q-3 -2 -6.5 -2.5t-6.5 -0.5q-12 0 -20.5 4.5t-14.5 11.5
q-8 12 -7.5 30.5t11.5 38.5q3 3 6 8t8 10q-3 1 -6.5 3.5t-7.5 4.5q-8 6 -16 10.5t-15 11.5q-20 17 -23.5 42t4.5 39q14 27 39 27q12 0 20 -3.5t13.5 -8t7.5 -8.5t2 -5q2 -3 1 -6t-2 -4q-8 -2 -8 3q-1 0 -3 3.5t-6.5 7.5t-10.5 7.5t-14 3.5q-5 0 -12.5 -5t-15.5 -19
q-5 -8 -2 -28.5t19 -35.5q7 -5 15 -10t17 -9q5 -6 14 -12q19 17 48.5 36.5t72.5 36.5q30 12 76.5 25.5t95 20t92.5 2.5t68 -25zM108 -9q-9 17 -30 27l-6.5 -8.5t-5.5 -6.5q-18 -34 -5 -54q9 -12 33 -8q14 1 20 16q4 7 2.5 16.5t-8.5 17.5z" />
    <glyph glyph-name="t.calt" unicode="&#xe013;" horiz-adv-x="533" 
d="M525 157q7 1 8 -6q0 -7 -8 -7q-62 -3 -115.5 -16.5t-99.5 -32t-85 -40.5t-71 -42l-74 -39.5t-56 -16.5q-10 0 -12 2q-23 3 -33 24q-7 13 -6.5 32.5t5 42t11.5 45.5t15 43q-14 -2 -22.5 -4t-14.5 -4q-7 -2 -11 -4h-5q-4 0 -4 7q-4 6 3 8q1 0 15 4t47 8q8 17 12.5 28
t4.5 13q2 2 5 4t6 -1q2 -1 3 -3.5t-1 -4.5q0 -2 -4 -11t-10 -25q9 2 19.5 3.5t23.5 1.5q7 0 7 -5q0 -7 -7 -7q-14 -3 -26 -4l-23 -2q-8 -19 -16 -41.5t-13 -45t-5.5 -42t5.5 -32.5q6 -11 20 -16q23 -4 57 13t76 41l73.5 41t86.5 41.5t101.5 33t117.5 16.5z" />
    <glyph glyph-name="u.calt" unicode="&#xe014;" horiz-adv-x="679" 
d="M670 177q8 0 8 -7q0 -3 -3 -5t-6 -2q-101 7 -174.5 -1t-127 -23.5t-89.5 -36t-61 -36.5q-20 -13 -34 -21t-27 -8h-2q-13 0 -19 4.5t-10 9.5q-8 13 -4.5 34t11.5 40q-42 -43 -77 -63.5t-55 -15.5q-14 5 -14 22q-3 13 0 27t7.5 25t9 18t5.5 8q4 4 9 1q6 -4 3 -10
q-1 0 -5 -6.5t-8 -16t-7 -22t-2 -24.5q3 -8 6 -8q7 -2 20 1.5t31.5 15.5t42 33t51.5 53q2 2 5 2.5t4 -1.5q3 -3 3 -7q-5 -11 -11 -25.5t-10 -28.5t-5.5 -26t2.5 -19q2 -1 5 -4t14 -3q9 1 22 8l32 18q24 16 60.5 36.5t91.5 37.5t130.5 25.5t177.5 0.5z" />
    <glyph glyph-name="v.calt" unicode="&#xe015;" horiz-adv-x="617" 
d="M611 180q7 -4 2 -9q-1 -5 -8 -5q-31 15 -65.5 16t-70.5 -6t-72 -19.5l-70 -25.5q-54 -20 -101.5 -35t-84.5 -5q-8 2 -15.5 4.5t-13.5 6.5q-17 -18 -35 -32.5t-34 -24.5t-29 -15.5t-19 -5.5q-2 0 -4.5 1t-3.5 4q-4 6 -3 21.5t4 33.5t7.5 34.5t7.5 25.5q2 6 9 4q5 -2 5 -9
q-11 -35 -16 -65t-3 -37q5 1 16 6t25 14.5t30 22.5t31 29q-12 8 -17 17t-6 18q-2 23 14 44t31 31q22 13 35 3q11 -13 3 -38q-14 -41 -40 -70q7 -4 12.5 -5.5t11.5 -3.5q33 -8 79.5 6t97.5 33l73.5 26.5t74.5 20.5t73 5.5t69 -16.5zM108 120q13 16 23 32.5t16 35.5q3 21 0 23
h-3q-7 0 -13 -5q-14 -7 -27 -25t-11 -35q0 -9 4.5 -15t10.5 -11z" />
    <glyph glyph-name="w.calt" unicode="&#xe016;" horiz-adv-x="666" 
d="M652 175q3 -1 1 -9q-1 -2 -4.5 -2t-5.5 2q-8 5 -27.5 3.5t-46.5 -7.5t-59 -15l-65 -18l-100 -30t-92 -22q-27 -2 -44.5 -0.5t-28.5 6.5q-17 -20 -37.5 -32t-34.5 -12q-11 0 -17 7q-13 16 -13 38l-20.5 -22.5t-23.5 -23.5t-23 -18.5t-18 -7.5q-6 0 -7 3q-9 9 -7 30t8 44.5
t13.5 43.5l10.5 28q2 5 9 5q6 -4 4 -9q-8 -18 -14.5 -38.5t-11 -39t-5.5 -33.5t2 -21q3 1 12.5 8.5t21.5 19l25.5 25.5t25.5 29q5 2 8 1q5 -2 5 -6q0 -9 1 -24.5t8 -21.5q1 -3 6 -3q11 0 27.5 10.5t32.5 27.5q-8 5 -10 11.5t-4 14.5q-3 15 1.5 32t13 32.5t19.5 26.5t21 14
q6 2 12 -1.5t8 -10.5q4 -14 3 -28t-5.5 -27t-10.5 -24t-12 -19l-7 -9l-7 -9q14 -5 29.5 -4t31.5 3q42 7 91 20t99 28q85 26 138 37.5t73 -3.5zM177 102q5 4 8.5 8.5l7.5 9.5q35 52 23 84q0 2 -0.5 2.5t-0.5 1.5l-1 1h-2q-6 -3 -15 -12.5t-16.5 -23t-12 -27.5t-2.5 -26
q2 -8 5 -12t6 -6z" />
    <glyph glyph-name="x.calt" unicode="&#xe017;" horiz-adv-x="501" 
d="M493 184q8 0 8 -7q0 -6 -8 -6q-49 0 -93 -8.5t-83 -21t-72.5 -28l-61.5 -29.5q-32 -16 -56.5 -25.5t-41.5 -9.5h-17q-17 8 -28 19.5t-18 22.5l-17.5 -17.5t-7.5 -6.5q-1 -1 -1.5 -1t-1.5 -1l-1 -1q-3 0 -6 3q-1 1 -1 5t1 5q3 4 7 8t8.5 8l10.5 9q-9 15 -12.5 28t-5.5 14
q0 7 8 7q1 2 4 0t4 -4q0 -5 2 -11q2 -5 4 -11.5t7 -14.5q13 11 27 21.5t27 15.5q6 1 10 -6t-4 -9q-12 -4 -25.5 -12.5t-27.5 -19.5q8 -11 18 -21t25 -16q14 -7 41 4.5l62 27.5l63.5 30t74 29t84 21.5t94.5 8.5z" />
    <glyph glyph-name="y.calt" unicode="&#xe018;" horiz-adv-x="537" 
d="M528 151q2 2 4.5 -0.5t2.5 -4.5q0 -7 -7 -7q-66 -1 -132 -15.5t-128 -37t-118 -51t-104 -57.5q-15 -32 -32.5 -62t-37 -53.5t-40 -37.5t-42.5 -14q-17 0 -22 7.5t-5 12.5q0 12 12.5 30t35 38.5t53.5 43t68 45.5q17 37 30.5 73l23.5 63l-10.5 -14.5t-13.5 -15.5
q-14 -15 -25 -22t-19 -9t-13.5 -0.5t-8.5 3.5q-8 4 -11 12.5t-1 16.5q2 10 5.5 18.5t5.5 15.5q3 8 5 14q0 3 3 4t5 0q7 -2 3 -10q-2 -6 -4 -13q-2 -6 -4.5 -14.5l-5.5 -18.5q-1 -5 0.5 -8t3.5 -5q7 -2 19.5 2t29.5 24q11 12 20.5 24.5l16.5 22.5q8 11 14 23q3 4 9 3
q6 -4 5 -9q-1 -3 -5.5 -17.5t-13 -37l-19.5 -51.5t-25 -59q8 2 12.5 6t11.5 6q33 18 81 41.5t106.5 44t125 35t135.5 15.5zM-106 -175q18 0 35.5 11.5t34 30.5t31.5 44t29 52q-66 -43 -104.5 -79.5t-38.5 -52.5q0 -1 2 -3.5t11 -2.5z" />
    <glyph glyph-name="z.calt" unicode="&#xe019;" horiz-adv-x="480" 
d="M445 166q20 -4 26 -11.5t6 -13.5q0 -9 -7 -9q-6 0 -6 9q0 7 -21 10q-20 3 -51.5 -2t-70 -15.5t-81 -27t-83.5 -36.5l-36.5 -16t-32.5 -19q4 -13 2 -32q-8 -30 -26.5 -61t-42 -57t-47 -44.5t-39.5 -23.5q-3 -1 -6.5 -1h-5.5q-14 0 -17 7q-13 11 -2 46q12 47 57 90t107 81
v1q-6 7 -15 10.5t-19 5t-19 1t-14 -1.5q-3 -2 -5.5 0.5t-2.5 4.5q-2 4 0.5 5.5t4.5 1.5q10 5 25.5 23t29.5 38q-23 -9 -37.5 -9.5t-15.5 -0.5q-7 0 -7 6q0 7 8 7q9 0 20 2q9 2 21 5.5t26 11.5q2 4 5 3t4 -4q5 -2 1 -7q-1 -3 -6 -11t-12.5 -19t-17 -22t-18.5 -20q13 -1 29 -5
t25 -15q2 -2 5 -2q49 28 102.5 51t103 38.5t91 23t65.5 4.5zM76 4q2 14 0 24q-68 -39 -108.5 -81.5t-52.5 -81.5q-4 -18 -2.5 -24.5t2.5 -7.5q4 -2 9 -2h8q15 4 36.5 21.5t43.5 42t39.5 53.5t24.5 56z" />
    <glyph glyph-name="ring" unicode="&#x2da;" horiz-adv-x="301" 
d="M84 190q-6 0 -8.5 2t-4.5 5q-2 4 -1.5 10t6.5 12q6 8 13.5 8.5t14.5 -3.5q4 -2 6.5 -6.5t-0.5 -8.5q-2 -13 -11 -16t-11 -3h-4zM94 216q-3 0 -9 -4q-7 -10 -4 -10q0 -2 4 -2q0 2 3 2q2 0 5 1q6 2 7 8q2 3 -2 3q-1 0 -2 1t-2 1z" />
    <glyph glyph-name="tilde" unicode="&#x2dc;" horiz-adv-x="190" 
d="M49 192q-2 0 -3.5 3t-1.5 5q0 4 4 10.5t12 10.5q6 4 16 1.5t21 -10.5q6 -2 10 -4t7 1q1 0 4 3q1 1 1 2q2 9 8 7q6 0 6 -7q0 -2 -2 -9t-11 -10q-12 -8 -30 7q-16 9 -24 7q-4 -3 -6 -7l-2 -4q0 -2 -2 -4t-4 -2h-3z" />
    <glyph glyph-name="b" unicode="b" horiz-adv-x="311" 
d="M15 3q-5 0 -11 1.5t-11 7.5q-7 6 -5 13q2 8 19 12.5t56 11.5q4 5 9 12t8 15q4 7 4.5 14t-0.5 12q-6 3 -13 3q-22 0 -67 -45q-17 -16 -29 -31q-6 -8 -12 -15q-3 -3 -8 -1q-6 1 -4 9q11 27 22.5 51.5t23.5 46.5q-2 1 -2 4q-2 4 0.5 6t4.5 2h4q27 51 52.5 85t45.5 57
q35 38 68 62q32 19 52 19q11 2 15 -3t6 -7q7 -14 -3.5 -35t-25.5 -38q-18 -24 -38 -44t-42 -38q-31 -26 -66 -46q-20 -10 -33.5 -15.5t-21.5 -7.5q-8 -14 -16 -30.5l-16 -33.5q4 3 7 6.5t7 6.5q49 50 76 50q17 0 23 -11q8 -11 4 -27t-15 -31q28 4 59 10t62 15t58.5 22.5
t48.5 32.5q2 2 5 1.5t5 -1.5q5 -7 -1 -11q-23 -21 -54.5 -35.5t-65.5 -24t-68 -15t-62 -9.5q-2 -4 -4.5 -5.5t-4.5 -3.5q-27 -24 -46 -24zM4 22q8 -8 21 -3t21 11q-14 -2 -24 -3q-4 -2 -7.5 -2.5t-5.5 -1.5q-3 -1 -5 -1zM222 343q-15 0 -44.5 -19.5t-65.5 -58.5
q-18 -20 -41 -51t-49 -75q9 3 18.5 7t20.5 11q26 14 63.5 43t79.5 82q19 22 24 37t2 18q-2 6 -7 6h-1z" />
    <glyph glyph-name="c" unicode="c" 
d="M0 3q-22 0 -32 8.5t-13 17.5q-4 12 -1 27t10 29.5t16.5 27t19.5 19.5q8 4 14 6t14 -2q12 -5 17.5 -18.5t5.5 -15.5q2 -9 -7 -9q-5 0 -7 5q-1 5 -5 14t-10 12h-5q-2 0 -12 -4q-6 -5 -13.5 -16t-15.5 -24q-6 -13 -9 -25.5t1 -20.5q4 -17 36 -17q28 2 68.5 13.5t81 28
t76 35.5t54.5 37q6 4 10 0q4 -7 0 -11q-18 -17 -53 -37.5t-80 -38.5q-45 -17 -86.5 -28.5t-70.5 -12.5h-4v0z" />
    <glyph glyph-name="a" unicode="a" horiz-adv-x="373" 
d="M129 24q-16 0 -23.5 4.5t-12.5 13.5q-6 11 -5 26t12 35q0 2 1 3.5t2 3.5q-14 -8 -23 -15l-20 -15q-16 -12 -30 -21.5t-26 -14.5q-8 -4 -19.5 -7.5t-23.5 4.5q-14 4 -14 23q0 32 48 66q29 20 49 11q13 -4 19 -12q4 -4 5 -9q3 -5 -2 -10q-8 -2 -12 5q-1 2 -3 5q-2 2 -4 4.5
t-6 4.5q-17 5 -37 -10q-25 -18 -34 -32t-9 -23q0 -10 7 -11q14 -8 34 4.5t50 33.5l24 17.5t27 18.5q5 4 9 6t9 6q5 3 10 -2q2 -2 0 -7q0 -1 -6.5 -11t-12.5 -24q-8 -14 -9.5 -26.5t2.5 -19.5q3 -6 11 -11t35 3q31 6 85 28t137 63q6 2 9 -3q4 -8 -3 -9q-85 -41 -138.5 -63.5
t-84.5 -29.5q-9 -2 -16 -2.5t-11 -0.5z" />
    <glyph glyph-name="b.alt1" horiz-adv-x="311" 
d="M15 3q-5 0 -11 1.5t-11 7.5q-7 6 -5 13q2 8 19 12.5t56 11.5q4 5 9 12t8 15q4 7 4.5 14t-0.5 12q-6 3 -13 3q-22 0 -67 -45q-17 -16 -29 -31q-6 -8 -12 -15q-3 -3 -8 -1q-6 1 -4 9q11 27 22.5 51.5t23.5 46.5q-2 1 -2 4q-2 4 0.5 6t4.5 2h4q27 51 52.5 85t45.5 57
q35 38 68 62q32 19 52 19q11 2 15 -3t6 -7q7 -14 -3.5 -35t-25.5 -38q-18 -24 -38 -44t-42 -38q-31 -26 -66 -46q-20 -10 -33.5 -15.5t-21.5 -7.5q-8 -14 -16 -30.5l-16 -33.5q4 3 7 6.5t7 6.5q49 50 76 50q17 0 23 -11q8 -11 4 -27t-15 -31q28 4 59 10t62 15t58.5 22.5
t48.5 32.5q2 2 5 1.5t5 -1.5q5 -7 -1 -11q-23 -21 -54.5 -35.5t-65.5 -24t-68 -15t-62 -9.5q-2 -4 -4.5 -5.5t-4.5 -3.5q-27 -24 -46 -24zM4 22q8 -8 21 -3t21 11q-14 -2 -24 -3q-4 -2 -7.5 -2.5t-5.5 -1.5q-3 -1 -5 -1zM222 343q-15 0 -44.5 -19.5t-65.5 -58.5
q-18 -20 -41 -51t-49 -75q9 3 18.5 7t20.5 11q26 14 63.5 43t79.5 82q19 22 24 37t2 18q-2 6 -7 6h-1z" />
    <glyph glyph-name="c.alt1" 
d="M0 3q-22 0 -32 8.5t-13 17.5q-4 12 -1 27t10 29.5t16.5 27t19.5 19.5q8 4 14 6t14 -2q12 -5 17.5 -18.5t5.5 -15.5q2 -9 -7 -9q-5 0 -7 5q-1 5 -5 14t-10 12h-5q-2 0 -12 -4q-6 -5 -13.5 -16t-15.5 -24q-6 -13 -9 -25.5t1 -20.5q4 -17 36 -17q28 2 68.5 13.5t81 28
t76 35.5t54.5 37q6 4 10 0q4 -7 0 -11q-18 -17 -53 -37.5t-80 -38.5q-45 -17 -86.5 -28.5t-70.5 -12.5h-4v0z" />
    <glyph glyph-name="d.alt1" horiz-adv-x="346" 
d="M127 22q-21 0 -34 7q-13 9 -18.5 24.5t-3.5 39.5q-31 -37 -53.5 -54t-39.5 -17h-2q-5 0 -11.5 4t-9.5 13q-5 8 -3.5 18.5t5.5 18.5q8 18 23.5 37.5t32.5 27.5q21 7 40 -9q7 -7 9 -10t4 -5t1 -5.5t-3 -4.5q-7 -3 -11 2q-1 1 -3 4l-4 4l-4 4q-9 12 -24 6q-11 -5 -25 -22
t-22 -35q-8 -19 -5 -26q4 -5 6.5 -6.5t4.5 -1.5q5 0 13 2.5t22 14.5q26 21 64 67q13 60 32.5 100t38.5 63q21 28 44.5 46t42.5 22q15 2 22 -2t9 -9q18 -28 -35 -96q-29 -38 -54.5 -64t-44.5 -39q-17 -13 -27.5 -20t-13.5 -11q-2 -1 -2 -5q-10 -50 14 -64q17 -10 58 -2
q17 4 38 12.5t45 19.5q20 10 38.5 20.5t32.5 19.5t22.5 15l8.5 6q6 2 8 -2q3 -2 2 -5.5t-3 -4.5q-14 -10 -31 -21q-14 -9 -32.5 -19.5t-38.5 -19.5q-76 -38 -123 -38zM243 337q-5 0 -5 -1q-8 0 -17.5 -5t-18.5 -12q-13 -9 -23 -20l-22 -24q-16 -21 -34 -57t-30 -87q5 2 12 7
l16 12q19 15 44.5 40t53.5 63q26 33 32 53t2 27q-3 4 -10 4z" />
    <glyph glyph-name="e.alt1" horiz-adv-x="250" 
d="M41 29q-10 0 -19.5 3t-17.5 7q-27 15 -27 46q0 19 8.5 33t25.5 19q13 7 26.5 7t19.5 -8q11 -6 6 -19q-2 -7 -6 -11t-8 -6q-8 -4 -16 -4t-16 2q-9 2 -17 4q-5 2 -5 3q-4 -6 -4 -20q0 -25 20 -34q14 -8 37 -7.5t54 10.5q32 11 70 30t78 48q6 2 8 -2q2 -2 2 -5.5t-3 -4.5
q-63 -45 -119.5 -68t-96.5 -23zM4 115q6 -2 17.5 -4.5t19.5 1.5q2 2 5 4t3 5q1 1 1 3q0 1 -1 1q-4 5 -13.5 5t-20.5 -5q-2 -1 -6.5 -3.5t-7.5 -6.5h3z" />
    <glyph glyph-name="f.alt1" horiz-adv-x="253" 
d="M-68 -239q-7 0 -15 4q-16 9 -21 35t-2 66q3 33 10.5 67.5t20.5 67.5q12 27 26 53t32 53q29 43 51.5 67t23.5 25q6 6 10 0q2 -2 2 -5.5t-2 -5.5q-11 -10 -23 -23q-11 -11 -24.5 -28t-27.5 -39q0 -1 -1 -2t-1 -2q2 -1 4 -2.5t3 -3.5q0 -3 1 -3h1q3 -1 7.5 -3.5t9.5 -4.5
q11 -5 30 -7t48 0q47 5 77.5 15.5t46.5 19.5q18 11 26 18t8 8q4 2 10 0q2 -2 2 -5v-5q-1 0 -9.5 -8.5t-28 -19t-51.5 -21t-79 -15.5q-31 -3 -52 -0.5t-33 7.5q8 -18 13.5 -41t9.5 -52q5 -40 -2.5 -71.5t-15.5 -51.5q-11 -26 -26 -46.5t-32 -30.5q-13 -10 -27 -10zM-17 83
q-24 -41 -47 -95.5t-28 -123.5q-2 -24 -0.5 -40t4.5 -26t6.5 -14.5t5.5 -6.5q6 -4 14 -1.5t13 6.5q13 8 27 26t25 43t16.5 55t2.5 63q-4 29 -9.5 52t-15.5 40q-3 11 -9 15q-2 2 -2.5 3.5t-2.5 3.5z" />
    <glyph glyph-name="g.alt1" 
d="M-104 -187q-11 0 -20 2.5t-14 7.5q-8 3 -10 10t-4 15q-3 14 4.5 31.5t21.5 37.5q15 21 37 42t50 41q27 21 59 39l65 35q8 15 13 29.5l9 25.5q-13 -13 -26.5 -22t-26.5 -14q-32 -15 -50 0q-9 5 -9 21q0 6 3 13l6 14q11 12 21 18.5t24 8.5q16 0 26 -10t10 -11q7 -4 0 -10
q-1 -2 -4 -1t-5 3q-4 3 -8 7q-4 3 -9 5.5t-10 2.5q-17 0 -32 -21q-7 -10 -8.5 -18t4.5 -12q11 -8 39 3t65 54q2 1 3.5 2t4.5 -1q6 -1 4 -7q0 -2 -6.5 -22l-17.5 -52q42 18 86.5 31t90.5 21q6 2 8 -5q0 -7 -7 -8q-48 -8 -94.5 -22.5t-91.5 -33.5q-5 -18 -14 -37.5t-17 -39.5
q-18 -37 -36 -67t-37 -50q-47 -55 -97 -56zM80 54q-30 -14 -57.5 -30.5t-53.5 -36.5q-28 -19 -48.5 -39t-36.5 -40q-26 -37 -23 -58q2 -26 35 -23q25 0 47.5 15.5t42.5 39t36.5 52.5t30.5 57q8 17 14 33t13 30z" />
    <glyph glyph-name="h.alt1" horiz-adv-x="294" 
d="M-43 12q-1 0 -2 1q-7 1 -5 9q11 27 22.5 51.5l22.5 46.5q0 1 -1 1.5t-1 2.5q0 8 7 8h3q27 51 53 85t46 57q17 19 34 34.5t34 27.5q15 9 27.5 14t23.5 5q11 2 15.5 -3t6.5 -7q7 -14 -4.5 -35t-24.5 -38q-20 -24 -40 -44t-40 -38l-33.5 -24.5t-33.5 -21.5
q-19 -10 -32.5 -15.5t-22.5 -7.5l-15 -30.5l-16 -34.5q2 2 2.5 3t2.5 2q40 40 68 43q18 0 26 -10q2 -1 6.5 -11t-2.5 -32q5 -2 23 1.5t56 17.5l67 29.5t62 32.5q8 2 10 -2q3 -8 -1 -10q-29 -17 -65 -33.5t-70 -29.5q-29 -11 -46.5 -15.5t-27.5 -5t-13.5 1t-4.5 2.5
q-7 2 -6 13q7 17 5 24t-3 7q-5 6 -14 6q-12 -1 -25.5 -10t-27 -21t-24.5 -24.5t-17 -20.5q-2 -2 -5 -2zM222 343q-17 0 -46 -19.5t-64 -58.5q-20 -20 -43 -51t-47 -75l16.5 7t22.5 11q26 14 63 43t78 82q20 22 25.5 37t1.5 18q0 6 -7 6z" />
    <glyph glyph-name="i.alt1" horiz-adv-x="226" 
d="M18 36q-10 0 -17.5 3.5t-14.5 13.5q-7 17 5 61q3 7 6.5 13t5.5 11q3 5 5 11q3 8 9 5q6 -5 3 -10q-2 -5 -5 -11q-2 -5 -5 -11.5l-6 -13.5q-8 -24 -7 -34.5t3 -13.5q3 -7 11.5 -10.5t30.5 3.5q21 6 52 20l77 35l25 10.5t28 13.5q6 1 10 -3q2 -3 0.5 -6t-4.5 -3
q-14 -8 -28 -14l-27 -12l-75 -33.5t-54 -20.5q-12 -4 -28 -4zM36 200q-5 0 -7 2.5l-5 6.5q-2 2 -1.5 4.5t2.5 3.5q2 2 6 4t6 0q4 -3 7 -10q0 -5 -2 -7t-3 -2l-2 -2h-1zM29 210l2 -1q1 -3 3 -3h1l-5 6q-1 -1 -1 -2z" />
    <glyph glyph-name="j.alt1" horiz-adv-x="174" 
d="M-212 -187q-11 0 -20 2.5t-14 7.5q-8 3 -11 10t-5 15q-2 14 5.5 31.5t21.5 37.5q16 21 38 42t49 41q29 21 60 39t66 35q7 17 12.5 32.5t8.5 26.5q4 13 6 24q5 7 10 4q2 0 4.5 -2.5t0.5 -4.5q0 -2 -6 -22t-17 -52q82 35 177 52q5 2 8 -5q0 -7 -7 -8q-49 -8 -94.5 -22.5
t-90.5 -33.5q-7 -18 -15.5 -37.5l-17.5 -39.5q-17 -37 -35 -67t-38 -50q-45 -55 -95 -56h-1zM-29 54q-60 -28 -110 -67q-27 -19 -48 -39t-36 -40q-12 -18 -19 -32.5t-6 -25.5q3 -26 36 -23q25 0 47.5 15.5t42 39t36.5 52.5t31 57q8 17 14 33t12 30zM24 200q-8 0 -12 9
q-2 5 1 8q2 2 5 4t7 0q5 -3 6 -10q0 -9 -6 -9q0 -1 -1 -2zM17 210q0 -1 1 -1h2l2 -3l-4 6q-1 -1 -1 -2z" />
    <glyph glyph-name="k.alt1" horiz-adv-x="295" 
d="M-48 12q-3 3 -2 10q11 27 22.5 51.5l22.5 46.5q0 1 -1 1.5t-1 2.5q0 8 7 8h3q27 51 53 85t46 57q17 19 34 34.5t34 27.5q15 9 27.5 14t23.5 5q11 2 15.5 -3t6.5 -7q7 -14 -4.5 -35t-24.5 -38q-20 -24 -40 -44t-40 -38l-33.5 -24.5t-33.5 -21.5q-19 -10 -32.5 -15.5
t-22.5 -7.5l-14 -28l-14 -29q2 2 3.5 4.5t5.5 5.5q24 26 43.5 40.5t33.5 15.5t23 -9q2 -2 2 -4t-2 -13.5t-13 -20.5q-9 -5 -18.5 -8t-22.5 -1q4 -8 19 -16q29 -11 78 0q32 8 71 26.5t87 47.5q6 2 10 -2q3 -9 -2 -10q-48 -29 -89 -48t-74 -28q-52 -12 -86 0q-11 5 -17.5 11.5
t-10.5 11.5q-4 6 -7 13q-17 -17 -32 -36t-23 -30q-4 -2 -6 -2h-5zM28 90q29 -8 42 3q11 10 11 21l-4 2t-6 -1q-8 0 -19.5 -7.5t-23.5 -17.5zM222 343q-17 0 -46 -19.5t-64 -58.5q-20 -20 -43 -51t-47 -75l16.5 7t22.5 11q25 14 62.5 43t78.5 82q20 22 25.5 37t1.5 18
q0 6 -7 6z" />
    <glyph glyph-name="l.alt1" 
d="M53 11q-24 0 -36 6q-13 8 -21 20.5t-8 29.5q0 26 7 52t20 52q11 23 27 44.5t36 42.5q18 19 37 35.5t39 29.5q17 11 34 20t31 14q26 7 35 -5q12 -15 -20 -53q-19 -24 -39 -44.5t-41 -38.5q-17 -13 -34 -24.5t-35 -20.5q-27 -17 -45 -21t-18 -6h-4q-6 -18 -10 -37.5
t-4 -39.5q0 -8 2.5 -19t17.5 -19q13 -5 34 -4.5t49 10.5q35 11 79.5 35.5t96.5 61.5q2 1 5.5 0.5t3.5 -2.5q2 -2 2 -5.5t-2 -4.5q-47 -32 -84 -53t-66.5 -33.5t-51 -17.5t-37.5 -5zM237 346h-5.5t-8.5 -2q-23 -8 -60.5 -32t-72.5 -62q-17 -17 -34.5 -39.5t-28.5 -50.5
q7 2 20 7.5t33 15.5q26 14 63 43t79 81q9 11 12.5 18t5.5 12t1 8q0 1 -4 1z" />
    <glyph glyph-name="m.alt1" horiz-adv-x="457" 
d="M-14 4q-10 0 -12 1q-8 5 -8.5 16t2.5 21q2 11 6 24t10 28q11 28 20.5 49t9.5 23q2 2 5 3t5 -1q5 -3 4 -10l-10 -21q-5 -9 -10 -20.5l-10 -23.5q-9 -24 -13 -38.5t-5 -22.5t0 -10.5t1 -3.5h6t13.5 5t21 18t27.5 39l23.5 38.5t20.5 28.5q9 14 16 18.5t12 2.5q8 -3 8 -11
t-2 -10q-2 -8 -5 -16.5t-5 -16.5q-8 -18 -12 -36q-2 -9 -1.5 -13t0.5 -5q1 0 1 -1t2 -1q5 -1 11 10.5t12 21.5q5 13 12 24t16 13q5 3 16 -2q11 -7 11 -23q0 -12 -5 -25q-2 -10 -3.5 -20t3.5 -16q4 -8 14 -11.5t25 -5.5q23 -3 49.5 4t53 18.5t51 26.5l43.5 27.5t30 21.5l11 9
q6 2 10 0q5 -7 -1 -11q-11 -9 -25 -19l-28 -18.5l-34 -21.5q-41 -25 -80 -39q-48 -15 -82 -11q-37 3 -49 23q-8 11 -6 23.5t4 23.5q10 25 0 33h-5q-3 -2 -9 -12l-11 -18q-7 -15 -14.5 -27.5t-18.5 -12.5h-4q-3 0 -6.5 3t-4.5 6q-7 10 -2.5 27.5t12.5 38.5q4 8 6 16t5 14v1
q-3 -2 -6.5 -5.5t-7.5 -11.5q-8 -10 -18 -25.5l-21 -33.5q-33 -58 -66 -70h-9v0z" />
    <glyph glyph-name="n.alt1" horiz-adv-x="357" 
d="M-24 11q-3 0 -5 1t-3 3.5t1 4.5q3 9 9 30l12 43t10 39l4 17q0 9 8 7q2 -2 4 -4.5t1 -4.5q0 -1 -2 -9l-5 -20t-7 -26.5l-8 -28.5q4 4 7.5 9t8.5 8q45 61 77 61l9 -3.5t6 -5.5q5 -6 5 -16t-1 -21q-2 -9 -3 -18.5t4 -13.5q5 -2 13 -3.5t28 4.5q37 11 73.5 23l66 22
l47.5 16.5t19 6.5q7 1 9 -3q1 -3 -0.5 -6t-3.5 -3l-18.5 -7l-47.5 -17.5t-66 -22.5t-74 -22q-20 -7 -33.5 -6t-20.5 7q-9 8 -9 20.5t2 24.5q0 8 1 16t-1 11h-2q-1 0 -2.5 0.5t-3.5 0.5q-6 2 -21 -7.5t-42 -46.5l-17 -21t-13 -18l-11 -19q-4 -2 -5 -2z" />
    <glyph glyph-name="o.alt1" horiz-adv-x="277" 
d="M-14 17q-7 1 -16 6.5t-14 20.5q-5 11 -5.5 22t4.5 19q4 11 11 19t14.5 13t13 8t6.5 4v4q0 13 4.5 24t15.5 17q17 10 37 -1q21 -14 19 -46q0 -8 -0.5 -14.5t-4.5 -14.5q20 -4 49 -1q35 2 75 11t82 24q5 3 7 -3q2 -9 -4 -9q-84 -34 -159 -36q-14 -1 -28 -1t-26 2
q-11 -28 -26 -41q-22 -27 -50 -27h-5zM4 115q-2 -1 -16 -9.5t-20 -24.5q-8 -16 1 -32q5 -13 18 -19q22 -2 44 23q15 15 22 35q-10 2 -18.5 5.5t-14.5 8.5q-5 2 -8 5.5t-8 7.5zM39 164q-8 0 -12 -3q-14 -6 -14 -28q2 -12 15 -19q11 -9 30 -12q2 5 2.5 12t2.5 13q1 25 -14 34
q-5 3 -10 3z" />
    <glyph glyph-name="p.alt1" horiz-adv-x="292" 
d="M-90 -187q-5 1 -5 10l99 328q1 5 4.5 5.5t5.5 0.5q3 0 4.5 -3.5t-0.5 -5.5l-49 -164q29 68 58 111q33 58 61 71q10 7 26 2q26 -11 23 -36q0 -11 -7 -25t-20 -26q-4 -3 -7.5 -7t-8.5 -6h11q34 2 83.5 15t103.5 49q8 2 10 -2q2 -2 1.5 -5.5t-2.5 -4.5q-26 -17 -53 -30
t-53 -22q-22 -6 -44.5 -9t-45.5 -5q-17 -1 -34 0q-3 -2 -6 -2.5t-7 -2.5q-24 -5 -38 9q-18 -33 -39 -84q-14 -29 -25 -57l-19 -50t-12.5 -36l-4.5 -14q-4 -4 -9 -4h-1zM29 74q5 -2 15.5 -4t23.5 -2q20 10 37 29.5t19 34.5q1 9 -3 14t-13 10q-9 2 -15 -2q-10 -5 -25.5 -22
t-38.5 -58z" />
    <glyph glyph-name="q.alt1" horiz-adv-x="319" 
d="M34 -177q-8 0 -16 4q-9 12 -6 40q0 12 3 27.5t7 33.5q9 29 22 65.5l27 74.5q9 17 15.5 31l13.5 28q-26 -37 -54 -51q-13 -8 -24 -11.5t-19 -1.5q-10 1 -15.5 5.5t-9.5 11.5q-6 22 15 45q22 24 47 24q16 -1 27 -8.5t16 -11.5q2 2 2.5 3.5t4.5 3.5q10 15 17 23.5t12 15.5
q2 4 4 6l4 4l4 4t6 -1q7 -2 4 -10q0 -2 -4 -4l-2.5 -7.5t-3.5 -9.5l-20.5 -40.5t-25.5 -53.5q-2 -10 -5 -14q3 0 20 -1.5t46 5.5q29 5 73.5 22.5t99.5 56.5q2 2 8 -2q2 -2 1.5 -5.5t-2.5 -4.5q-26 -19 -51 -32.5t-49 -23.5q-40 -18 -78 -25q-38 -6 -58 -4q14 -36 13 -81.5
t-15 -81.5q-8 -17 -19 -29.5t-25 -17.5q-6 -2 -10 -2zM76 35q-14 -30 -24 -59t-16 -53q-7 -26 -9.5 -42t-2.5 -25t1.5 -13t3.5 -5q0 -1 2 -2t9 2q14 3 22 16t14 24q6 17 9.5 37.5t3.5 41.5t-3.5 41t-9.5 37zM39 134q-9 0 -18 -4t-17 -13q-18 -19 -13 -32q6 -8 13 -8
q16 -2 35 8l18 14.5t17 17.5q-3 3 -12 10t-22 7h-1z" />
    <glyph glyph-name="r.alt1" horiz-adv-x="263" 
d="M-29 11q-2 0 -2.5 0.5t-2.5 0.5q-4 2 -2 10q17 32 24 53.5t10 35.5q3 16 2 25q-4 7 3 10q1 2 4.5 0.5t4.5 -3.5q0 -1 1.5 -6t0 -16.5t-6 -29.5t-16.5 -45q10 11 22 28t23 40q0 3 5 3q1 2 2 1t3 -1q6 -4 15 -8q8 -4 18 -8t24 -6q25 -3 65.5 2.5t94.5 34.5q2 1 4.5 0.5
t3.5 -2.5q2 -8 -3 -10q-48 -27 -95 -36q-38 -9 -73 -1q-20 2 -34 8t-22 11q-12 -26 -24 -42.5t-22 -27.5q-11 -12 -22 -20q-2 0 -2.5 -0.5t-2.5 -0.5z" />
    <glyph glyph-name="s.alt1" horiz-adv-x="272" 
d="M84 -75q-22 0 -32 14q-8 9 -9.5 24t6.5 32q2 7 6.5 16t10.5 17q-2 2 -5.5 4t-6.5 4l-17 11.5t-13 10.5q-18 15 -26 44q-2 10 -1 20.5t6 16.5q15 29 39 29q12 0 20 -4.5t13 -9.5q6 -6 10 -13q2 -3 1 -6t-2 -3q-7 -3 -10 2q0 2 -7.5 11t-24.5 9q-5 0 -12.5 -4t-15.5 -18
q-5 -8 -1 -28.5t21 -35.5l12 -9.5t15 -9.5q7 -8 15 -10q26 29 75 56t126 37q6 0 7 -5q0 -7 -6 -8q-45 -7 -83.5 -20.5t-69.5 -32.5l-22 -19t-18 -17q11 -6 19 -13.5t16 -16.5q8 -11 9 -24.5t-4 -24.5q-6 -18 -28 -23q-3 0 -6.5 -1.5t-6.5 -1.5zM77 20q-7 -9 -10.5 -17
t-6.5 -13q-10 -28 1 -41t33 -8q14 5 20 16q5 18 -6 34q-5 9 -13 16t-18 13z" />
    <glyph glyph-name="t.alt1" horiz-adv-x="306" 
d="M-48 134q-5 0 -5 5q-3 6 3 10q1 0 15 4t46 7l7.5 17t5.5 13q3 6 5 12q3 5 11 3q2 -1 3 -3.5t-1 -4.5q-1 -5 -4 -10q-6 -11 -11 -26q10 2 20.5 3.5t23.5 1.5q9 0 9 -6q0 -2 -2 -5.5t-4 -3.5q-16 -1 -28.5 -1.5t-23.5 -2.5q-5 -8 -8.5 -17t-8.5 -20q-29 -88 -12 -123
q6 -12 20 -14q4 -2 11 -2q26 0 67.5 19t98.5 54q23 15 44.5 30.5t37.5 28.5l34 28q3 2 11 0q4 -8 -1 -11q-1 0 -11 -7.5l-25.5 -19.5l-36.5 -27.5t-45 -31.5q-118 -77 -174 -77h-6.5t-5.5 2q-23 3 -33 24q-8 19 -5.5 52.5t19.5 81.5q3 8 6 14.5t5 14.5q-27 -5 -37 -7
q-7 -2 -11 -3q-1 -2 -4 -2z" />
    <glyph glyph-name="u.alt1" horiz-adv-x="406" 
d="M151 39q-11 0 -16.5 4t-9.5 9q-12 21 5 68q1 1 1 2.5t1 2.5q-18 -17 -35.5 -31.5t-32.5 -25.5q-11 -8 -26 -15t-28 -7q-4 0 -6 1.5t-4 1.5q-13 3 -16 19q-2 14 1 27.5t8 24.5t9.5 18t5.5 8q4 4 9 2q9 -3 1 -11q-7 -11 -11 -22q-4 -10 -7.5 -21.5t-1.5 -23.5q0 -5 2.5 -6
t3.5 -3q8 -2 21.5 3t30.5 16q21 14 45 36t48 48q0 2 4 2h4q3 -2 3.5 -5t-0.5 -4q-3 -6 -6 -13q-7 -14 -11 -29q-8 -19 -9.5 -34t3.5 -21q0 -7 17 -7q14 0 38 6t52 14.5t56 19l51 19l38 14.5l15 6q8 2 10 -3q2 -3 0.5 -6t-4.5 -3q-2 -1 -18 -7l-39 -15t-51.5 -19l-56.5 -19
t-52 -15t-39 -6h-3v0z" />
    <glyph glyph-name="v.alt1" horiz-adv-x="404" 
d="M-5 24q-2 1 -8 5q-2 5 -3 18t6 48q4 19 8.5 34t5.5 15q0 5 8 5q5 -2 5 -8q-2 -7 -4 -15l-4.5 -15.5t-4.5 -17.5q-7 -30 -6.5 -41t2.5 -13q4 1 24 11t44 30q6 4 10.5 8.5t11.5 9.5q-4 3 -6 5.5t-4 5.5q-13 18 -4 48q3 13 12 25t20 23q12 12 23.5 16.5t17.5 2.5t11.5 -9.5
t-0.5 -29.5q-16 -50 -51 -85q6 -4 12.5 -6t15.5 -4q23 -8 47.5 -9.5t48 0.5t45 6t39.5 8q19 6 35 13l27 12q13 6 24 12q6 1 11 -2q3 -8 -4 -10q-1 -1 -25.5 -13t-65.5 -23q-23 -6 -45.5 -11t-43.5 -6q-52 -4 -98 9q-9 2 -17.5 5.5t-14.5 8.5q-7 -7 -12.5 -11.5t-11.5 -10.5
q-24 -18 -46 -31t-33 -13h-2zM144 211q-7 0 -27 -16q-10 -9 -17.5 -21t-9.5 -24q-8 -20 3 -33q2 -7 5 -9q16 17 28.5 37t20.5 45q2 7 2 10.5v5.5q-1 2 -1 3l-1 1q-1 0 -1 0.5t-2 0.5z" />
    <glyph glyph-name="w.alt1" horiz-adv-x="435" 
d="M-7 13q-6 0 -7 4q-10 7 -7 36q2 10 4 21.5t5 25.5l7.5 23t7.5 19q4 10 8 19q1 5 9 5q4 -2 4 -9q-3 -9 -7 -19l-7 -20t-7 -23q-12 -37 -11.5 -51t3.5 -17q2 1 12.5 8t33.5 31q17 14 28 27.5t11 14.5q5 2 8 1q5 -2 5 -7q0 -9 1 -23.5t8 -21.5q1 -3 6 -3q16 0 39 20
q7 3 11.5 8l9.5 11q-5 3 -8.5 9.5t-5.5 14.5q-4 13 0.5 29.5t13.5 35.5q19 32 41 40q6 2 12 -1t8 -11q4 -13 3 -27t-5.5 -27t-10.5 -24t-12 -18q-4 -5 -7 -9.5l-7 -10.5q12 -3 28 -3t32 2q51 8 86 15t56.5 12.5t31.5 8.5t11 3q5 2 8 -3q2 -3 0 -6t-5 -3l-10 -3.5t-31.5 -8.5
t-57 -12.5t-86.5 -15.5q-23 -3 -40.5 -2.5t-29.5 6.5h-3q-11 -12 -23 -21q-11 -8 -24 -15t-25 -7q-5 0 -9.5 1.5t-7.5 6.5q-6 5 -8.5 15t-4.5 20q-5 -5 -11.5 -12.5t-14.5 -15.5q-29 -29 -41 -36t-18 -7zM211 209q-5 -3 -14 -11.5t-17 -22.5q-9 -14 -12.5 -29t-1.5 -26
q2 -6 5 -10l6 -8q5 5 8.5 9.5t6.5 9.5q37 51 24 84q0 2 -0.5 2t-0.5 1q-1 0 -1 1h-3z" />
    <glyph glyph-name="x.alt1" horiz-adv-x="285" 
d="M-9 66q-3 0 -5 2t-2 5t2 4l8.5 8.5t18.5 16.5q-2 4 -2 6q-5 7 -7.5 13.5l-4.5 11.5q-3 6 -4 11q0 7 5 7q3 2 5.5 0.5t4.5 -3.5q0 -1 2 -10.5t10 -23.5l2 -2q12 10 26 20t27 15q8 1 8 -4q4 -3 2 -6t-4 -4q-12 -5 -25.5 -13.5t-27.5 -19.5q19 -26 41 -36q21 -7 54 2
q16 2 34 8t39 16q17 7 33 14.5l28 13.5q14 7 26 14q8 2 10 -2q3 -8 -3 -10l-27 -15q-12 -7 -28.5 -14.5t-34.5 -14.5q-34 -14 -61.5 -20.5t-47.5 -6.5q-8 0 -13.5 0.5t-12.5 2.5q-14 6 -25 16t-22 23q-6 -5 -10 -9l-7 -7q-4 -4 -6 -7q-4 -2 -6 -2z" />
    <glyph glyph-name="y.alt1" horiz-adv-x="270" 
d="M-104 -187q-19 0 -24 7t-5 13q-1 13 11 30t37 43l52.5 46l61.5 51q5 2 9.5 5.5t10.5 5.5q13 30 22.5 59t18.5 52q-5 -8 -10.5 -15t-13.5 -15q-18 -19 -31 -25t-22 -6q-7 0 -13 4q-9 5 -11.5 12t-1.5 15q6 20 11.5 34t5.5 15q0 2 3 3.5t5 -0.5q5 -2 5 -10q-2 -6 -5 -13
q-2 -6 -5 -14t-6 -17q-1 -4 0.5 -7.5t3.5 -5.5q7 -3 19.5 1t29.5 24q11 13 20.5 25.5l16.5 22.5q8 11 14 22q5 5 9 2q2 -2 4 -3t1 -4q-2 -2 -15 -43t-36 -98l49 33.5t46 27.5q35 19 62 30t45 12q2 0 4.5 -1t2.5 -4q0 -7 -6 -8q-17 -2 -42.5 -12.5t-58.5 -29.5
q-26 -14 -55 -32t-57 -41q-4 -5 -5 -11q-79 -180 -157 -180zM36 -12q-78 -58 -117.5 -99.5t-37.5 -55.5q0 -2 2 -4t13 -2q32 0 67 41t73 120z" />
    <glyph glyph-name="z.alt1" horiz-adv-x="272" 
d="M-77 -184q-14 0 -17 7q-6 6 -7 17t5 29q15 63 79 121q16 16 35.5 30t42.5 29q-13 7 -32 8t-28 -1q-8 0 -8 5q0 6 5 9q10 3 25.5 21.5t29.5 38.5q-23 -10 -37.5 -10.5t-15.5 -0.5q-7 0 -7 6q0 7 7 7q1 0 20 2t48 17q2 2 5 2t4 -3q5 -2 1 -7q-1 -2 -8.5 -14t-18.5 -26
l-15 -18.5t-12 -13.5q12 -1 26 -4t26 -13q7 5 14.5 9t16.5 8q32 16 61.5 27.5t53 19t37.5 11t15 3.5q5 2 8 -5q0 -6 -5 -8q-24 -6 -50 -15l-52.5 -19t-60.5 -27q-8 -3 -15 -6.5l-15 -7.5q12 -17 4 -41q-6 -26 -23 -57t-43 -60q-23 -26 -47 -44.5t-41 -23.5q-6 -2 -11 -2z
M71 37q-25 -15 -50 -33t-46 -39t-37 -46t-23 -53q-4 -18 -2.5 -24.5t2.5 -8.5q6 -3 16 0q16 4 38 21t43.5 41.5t39 53t24.5 55.5q1 11 0.5 19t-5.5 14z" />
    <glyph glyph-name="a.alt1" horiz-adv-x="373" 
d="M129 24q-16 0 -23.5 4.5t-12.5 13.5q-6 11 -5 26t12 35q0 2 1 3.5t2 3.5q-14 -8 -23 -15l-20 -15q-16 -12 -30 -21.5t-26 -14.5q-8 -4 -19.5 -7.5t-23.5 4.5q-14 4 -14 23q0 32 48 66q29 20 49 11q13 -4 19 -12q4 -4 5 -9q3 -5 -2 -10q-8 -2 -12 5q-1 2 -3 5q-2 2 -4 4.5
t-6 4.5q-17 5 -37 -10q-25 -18 -34 -32t-9 -23q0 -10 7 -11q14 -8 34 4.5t50 33.5l24 17.5t27 18.5q5 4 9 6t9 6q5 3 10 -2q2 -2 0 -7q0 -1 -6.5 -11t-12.5 -24q-8 -14 -9.5 -26.5t2.5 -19.5q3 -6 11 -11t35 3q31 6 85 28t137 63q6 2 9 -3q4 -8 -3 -9q-85 -41 -138.5 -63.5
t-84.5 -29.5q-9 -2 -16 -2.5t-11 -0.5z" />
    </font>
</defs>
</svg>
